<?xml version="1.0" encoding="UTF-8"?>
<svg version="1.1" xmlns="http://www.w3.org/2000/svg" width="1135" height="168">
<path d="M0 0 C5.14459602 3.85844702 9.87889228 7.55668133 14.5 11.9375 C15.6360605 12.99940257 16.77277571 14.06060516 17.91015625 15.12109375 C18.71477295 15.87302002 18.71477295 15.87302002 19.53564453 16.64013672 C23.64038931 20.45197873 27.9103379 24.07370194 32.17578125 27.703125 C38.51266091 33.1016641 44.77233731 38.55535348 50.8840332 44.20825195 C53.53466875 46.65974533 56.20591743 49.07659147 58.9375 51.4375 C62.52959922 54.54965277 66.01526541 57.76897941 69.5 61 C76.2637357 67.26360707 83.15819958 73.31468198 90.24609375 79.2109375 C90.80067261 79.67266357 91.35525146 80.13438965 91.92663574 80.61010742 C93.28421285 81.74032509 94.64207727 82.87019762 96 84 C96.01030746 82.99997452 96.02061493 81.99994904 96.03123474 80.96961975 C96.12879804 71.56625227 96.23151546 62.1629535 96.33933926 52.75969791 C96.39461127 47.92486463 96.44803797 43.09002535 96.49731445 38.25512695 C96.54489507 33.59317516 96.59723533 28.93129933 96.65294075 24.26943779 C96.67339296 22.48677895 96.6921012 20.70409925 96.70907402 18.92140388 C96.73305486 16.43328399 96.7631176 13.94530902 96.79467773 11.45727539 C96.8004332 10.71281158 96.80618866 9.96834778 96.81211853 9.20132446 C96.88594784 4.11405216 96.88594784 4.11405216 98 3 C108.89 3 119.78 3 131 3 C131 53.49 131 103.98 131 156 C127.18439171 153.71063503 124.50583176 151.82025475 121.3125 148.875 C120.44109375 148.07707031 119.5696875 147.27914062 118.671875 146.45703125 C117.79015625 145.64621094 116.9084375 144.83539063 116 144 C114.3559736 142.51882527 112.71016483 141.03962627 111.0625 139.5625 C107.48760239 136.34677578 103.92826877 133.11460091 100.375 129.875 C96.62541659 126.46198509 92.84476588 123.09278969 89.015625 119.76953125 C86.71392236 117.74885044 84.45235621 115.68687382 82.1875 113.625 C78.81059018 110.57141133 75.36782868 107.65570795 71.8125 104.8125 C65.74823369 99.91112567 60.12105898 94.57990414 54.44921875 89.234375 C50.71685184 85.71990521 46.88308746 82.34748919 43 79 C40.03 76.36 37.06 73.72 34 71 C33.67 98.39 33.34 125.78 33 154 C22.11 154 11.22 154 0 154 C0 103.18 0 52.36 0 0 Z " fill="#040707" transform="translate(3,6)"/>
<path d="M0 0 C78.70324707 0 78.70324707 0 94.96484375 15.5625 C104.65897356 27.17312764 108.89879834 40.98060662 108 56 C106.73227394 69.38356517 101.82849416 78.79397714 92 88 C89.99329792 89.47676315 88.00406042 90.7629604 85.82421875 91.96484375 C83.74047486 93.14726801 81.89205667 94.53396934 80 96 C80.43828125 96.70640625 80.8765625 97.4128125 81.328125 98.140625 C85.60613052 105.06195101 89.8212398 112.0182844 94 119 C101.79908064 132.28095774 101.79908064 132.28095774 110.21875 145.1640625 C112 148 112 148 112 151 C106.84078257 151.22320235 101.68439491 151.38610225 96.52148438 151.49438477 C94.76740561 151.53953126 93.01366349 151.60086921 91.26074219 151.67895508 C76.83861087 152.30511458 76.83861087 152.30511458 72.73413086 149.39160156 C71.11276003 147.00778914 70.08533693 144.66954054 69 142 C67.86250486 140.02065749 66.70077071 138.05511447 65.51953125 136.1015625 C64.28085838 133.94442581 63.04529366 131.78550202 61.8125 129.625 C60.81635072 127.88914439 59.82019967 126.15328978 58.82373047 124.4176178 C57.83383459 122.69253866 56.84537692 120.9666345 55.85693359 119.24072266 C53.2890204 114.75919759 50.70975835 110.28432522 48.125 105.8125 C47.73417236 105.1333252 47.34334473 104.45415039 46.94067383 103.75439453 C42.71807014 96.44567327 38.34495348 89.24158914 34 82 C33.67 104.77 33.34 127.54 33 151 C22.11 151 11.22 151 0 151 C0 101.17 0 51.34 0 0 Z M33 29 C33 43.85 33 58.7 33 74 C36.63 74.061875 40.26 74.12375 44 74.1875 C45.69189453 74.22846802 45.69189453 74.22846802 47.41796875 74.27026367 C54.91857439 74.33175489 60.27212848 73.28755752 66.75 69.3125 C71.6514326 64.2749165 73.65089685 58.55370101 74.1015625 51.58984375 C73.87909829 45.9170063 72.16927865 40.99210436 69.3125 36.125 C58.93023084 26.58453645 46.95544388 29 33 29 Z " fill="#040707" transform="translate(307,9)"/>
<path d="M0 0 C5.33845574 -0.12368107 10.67607624 -0.21437609 16.015625 -0.2746582 C17.83152799 -0.299789 19.64732996 -0.33389961 21.46289062 -0.37719727 C24.07447223 -0.43791511 26.68471594 -0.46622281 29.296875 -0.48828125 C30.10743347 -0.51408768 30.91799194 -0.5398941 31.75311279 -0.56648254 C35.57824574 -0.56838209 37.50561565 -0.46763296 40.3371582 2.21069336 C40.885896 3.13116455 41.43463379 4.05163574 42 5 C42.82842407 6.23919189 42.82842407 6.23919189 43.67358398 7.50341797 C44.21313721 8.36596191 44.75269043 9.22850586 45.30859375 10.1171875 C45.91300293 11.07850586 46.51741211 12.03982422 47.14013672 13.03027344 C48.06076904 14.50028809 48.06076904 14.50028809 49 16 C50.17708187 17.85759748 51.35544973 19.71438076 52.53515625 21.5703125 C54.30348756 24.3549937 56.07180316 27.13967627 57.83789062 29.92578125 C61.48601649 35.66722684 65.19966617 41.35810618 69 47 C73.59798305 40.61827251 77.86800144 34.08757869 82.00952148 27.40527344 C85.26813035 22.15354684 88.58267603 16.94078893 91.9375 11.75 C92.39801758 11.03513428 92.85853516 10.32026855 93.33300781 9.58374023 C93.9860791 8.57549194 93.9860791 8.57549194 94.65234375 7.546875 C95.22456665 6.66273926 95.22456665 6.66273926 95.80834961 5.76074219 C96.20159424 5.17969727 96.59483887 4.59865234 97 4 C97.54213135 2.91235352 97.54213135 2.91235352 98.09521484 1.80273438 C101.17665055 -1.11361031 104.81361648 -0.48947898 108.82421875 -0.390625 C109.68561966 -0.38496521 110.54702057 -0.37930542 111.43452454 -0.37347412 C114.18608148 -0.3510813 116.93633663 -0.3008808 119.6875 -0.25 C121.55271557 -0.2299387 123.41795155 -0.21168728 125.28320312 -0.1953125 C129.85597042 -0.15120713 134.4277645 -0.08216057 139 0 C134.52975472 9.37366438 128.09884497 17.88956259 122.25 26.4375 C121.14613688 28.05525599 120.04228145 29.67301728 118.93875122 31.29100037 C118.16801071 32.42098538 117.39707348 33.55083624 116.62594604 34.68055725 C113.66619544 39.01799647 110.71774044 43.36300041 107.7734375 47.7109375 C107.34216553 48.34759842 106.91089355 48.98425934 106.46655273 49.64021301 C104.76916319 52.14605749 103.07181052 54.65192486 101.37609863 57.15890503 C100.20214043 58.89429978 99.02696625 60.62886538 97.8515625 62.36328125 C97.17947754 63.35626221 96.50739258 64.34924316 95.81494141 65.37231445 C94 68 94 68 92.19677734 70.10229492 C90.81559652 71.89303718 90.81559652 71.89303718 91.08227539 73.8894043 C92.32550563 76.74860233 93.93816634 79.18473898 95.68359375 81.76953125 C96.05799088 82.32758957 96.432388 82.88564789 96.81813049 83.46061707 C98.01919735 85.2482771 99.2281126 87.03046125 100.4375 88.8125 C101.2160326 89.9677367 101.99403201 91.12333292 102.77148438 92.27929688 C104.36062674 94.64104501 105.95290957 97.00063568 107.546875 99.35913086 C110.01589085 103.01710742 112.45972694 106.69155443 114.90234375 110.3671875 C118.42309759 115.66110539 121.98312996 120.9266659 125.5703125 126.17578125 C126.4948007 127.53059279 127.4192799 128.88541048 128.34375 130.24023438 C129.75262473 132.3045443 131.16295068 134.36779902 132.57714844 136.4284668 C133.9749303 138.46638745 135.36688429 140.508179 136.7578125 142.55078125 C137.39978073 143.48184441 137.39978073 143.48184441 138.05471802 144.43171692 C141 148.77253667 141 148.77253667 141 151 C109.14729184 155.14269326 109.14729184 155.14269326 100.17279053 149.94091797 C93.19209421 144.31207469 89.371834 135.49760691 85.69775391 127.52783203 C83.24011561 122.42100526 80.14970098 117.82330002 77 113.125 C74.26205466 108.87144669 71.660288 104.81106182 70 100 C69.34 100 68.68 100 68 100 C67.66548828 100.98613281 67.66548828 100.98613281 67.32421875 101.9921875 C65.56205097 105.99475147 63.22184914 109.48513877 60.8125 113.125 C59.80827913 114.6586482 58.80437221 116.19250203 57.80078125 117.7265625 C57.31561035 118.46551758 56.83043945 119.20447266 56.33056641 119.96582031 C54.69728611 122.46279122 53.09457653 124.97816364 51.5 127.5 C48.39694049 132.38921083 45.26516018 137.25956567 42.125 142.125 C41.63580078 142.88490234 41.14660156 143.64480469 40.64257812 144.42773438 C40.18560547 145.13478516 39.72863281 145.84183594 39.2578125 146.5703125 C38.64123779 147.52574951 38.64123779 147.52574951 38.01220703 148.50048828 C37 150 37 150 36 151 C33.1156618 151.08865208 30.25537842 151.11521296 27.37109375 151.09765625 C26.07474754 151.09553383 26.07474754 151.09553383 24.75221252 151.09336853 C21.98060708 151.08775239 19.2090812 151.07519719 16.4375 151.0625 C14.5631522 151.05748708 12.68880315 151.05292381 10.81445312 151.04882812 C6.20960456 151.03777772 1.60481579 151.0205023 -3 151 C-1.09371533 147.08155551 1.19134747 143.46235498 3.5625 139.8125 C4.03357178 139.08562988 4.50464355 138.35875977 4.98999023 137.60986328 C10.85231643 128.61904398 16.92669078 119.77132148 22.9765625 110.90625 C26.54610419 105.67379595 30.09900118 100.43099821 33.5793457 95.13867188 C35.62745039 92.02744593 37.72630651 88.96658497 39.89453125 85.9375 C40.37156494 85.2583252 40.84859863 84.57915039 41.34008789 83.87939453 C42.25541138 82.57812944 43.18490085 81.28667258 44.13061523 80.00732422 C45.54353169 78.06498554 45.54353169 78.06498554 47 75 C45.72662901 69.9876512 42.32867987 65.74169132 39.46875 61.5078125 C38.64292419 60.27331863 38.64292419 60.27331863 37.80041504 59.0138855 C36.03793567 56.38132728 34.26911791 53.75310041 32.5 51.125 C31.34071756 49.39612043 30.18185929 47.66695636 29.0234375 45.9375 C26.75491596 42.55171662 24.48368099 39.1677787 22.21044922 35.78515625 C20.16881335 32.74536529 18.13315596 29.70178139 16.10595703 26.65234375 C15.65909546 25.98016815 15.21223389 25.30799255 14.75183105 24.615448 C13.9399494 23.39302094 13.12890321 22.17003829 12.31896973 20.94631958 C8.86748325 15.7497498 5.25810875 10.67390905 1.6171875 5.609375 C0 3 0 3 0 0 Z " fill="#040707" transform="translate(989,9)"/>
<path d="M0 0 C1 1 1 1 1.11352539 4.05102539 C1.11336634 5.39991271 1.10767612 6.74880614 1.09765625 8.09765625 C1.0962413 8.80651474 1.09482635 9.51537323 1.09336853 10.24571228 C1.08775443 12.51801712 1.07519963 14.79022475 1.0625 17.0625 C1.05748681 18.59960796 1.05292359 20.13671745 1.04882812 21.67382812 C1.03778042 25.44925642 1.02050641 29.22461171 1 33 C0.44747559 32.80881592 -0.10504883 32.61763184 -0.67431641 32.4206543 C-20.91944993 25.52700385 -42.12008093 22.02251819 -62.25 31.25 C-73.38244441 37.32386167 -79.26246666 45.87488888 -82.87890625 57.9296875 C-85.84939454 72.26281282 -84.38726503 87.85455829 -76.78125 100.53125 C-69.35937712 110.81770539 -58.28515569 115.77864271 -46 118 C-42.78593432 118.28828779 -39.60069721 118.33374019 -36.375 118.3125 C-35.49980713 118.30831055 -34.62461426 118.30412109 -33.72290039 118.29980469 C-22.91474548 118.11361087 -13.17009837 115.74321933 -3.109375 111.76953125 C-1 111 -1 111 1 111 C1 121.56 1 132.12 1 143 C-8.79711581 147.19876392 -19.25936227 150.57771852 -30 151 C-30.97066406 151.03996094 -31.94132812 151.07992187 -32.94140625 151.12109375 C-55.67697945 151.58620175 -77.679887 145.15169114 -95 130.125 C-109.9512999 115.5995992 -118.91532399 95.99267661 -119.24145508 75.07250977 C-119.30473451 56.02178519 -114.91694057 39.78419116 -104 24 C-103.34 23.01 -102.68 22.02 -102 21 C-101.34 21 -100.68 21 -100 21 C-99.7525 20.41992188 -99.505 19.83984375 -99.25 19.2421875 C-95.08493691 11.77110559 -86.32771021 6.92825702 -79 3 C-78.42000244 2.68119873 -77.84000488 2.36239746 -77.24243164 2.03393555 C-72.16483952 -0.653086 -67.12206343 -2.29200022 -61.5625 -3.6875 C-60.37043945 -4.00557617 -60.37043945 -4.00557617 -59.15429688 -4.33007812 C-39.12816435 -9.49548415 -19.24334953 -6.94697021 0 0 Z " fill="#040707" transform="translate(277,12)"/>
<path d="M0 0 C11.88 0 23.76 0 36 0 C38.92899078 5.85798155 41.80679667 11.63614556 44.42578125 17.62109375 C45.05662761 19.04981043 45.68748757 20.47852111 46.31835938 21.90722656 C46.64344482 22.64589966 46.96853027 23.38457275 47.3034668 24.14562988 C53.43043941 38.06214463 59.66517618 51.92691478 66 65.75 C66.35478424 66.52423309 66.70956848 67.29846619 67.07510376 68.09616089 C69.04740448 72.39866752 71.02243565 76.69991032 73 81 C73.41902588 80.03497559 73.83805176 79.06995117 74.26977539 78.07568359 C78.25621548 68.91674795 82.33212068 59.80279396 86.48220825 50.71694946 C88.12414504 47.12134762 89.7613558 43.52359566 91.3984375 39.92578125 C91.71557205 39.2288768 92.0327066 38.53197235 92.35945129 37.81394958 C94.78097852 32.48924759 97.18640266 27.15765581 99.5625 21.8125 C99.83570068 21.19906738 100.10890137 20.58563477 100.39038086 19.95361328 C103.32356231 13.32914679 106.14575494 6.65990515 109 0 C121.21 0 133.42 0 146 0 C144.52072158 4.43783525 143.02171335 8.2290349 140.98046875 12.3828125 C140.53875587 13.28701683 140.53875587 13.28701683 140.08811951 14.20948792 C139.45476365 15.50580341 138.8198965 16.80138142 138.18365479 18.09628296 C136.46838862 21.58950485 134.76696221 25.08944221 133.06640625 28.58984375 C132.72031311 29.30205582 132.37421997 30.01426788 132.01763916 30.74806213 C128.81184855 37.36004067 125.70314459 44.01517324 122.625 50.6875 C117.24330414 62.35190343 111.77034408 73.97061619 106.27133179 85.58004761 C101.76028748 95.10749892 97.29977027 104.65331716 92.9375 114.25 C89.67049899 121.43716009 86.29861988 128.54848846 82.72241211 135.58691406 C79.64545049 141.64869819 76.80011773 147.80580017 74 154 C73.01 154 72.02 154 71 154 C70.37363647 152.6553064 70.37363647 152.6553064 69.73461914 151.28344727 C65.65550024 142.53144985 61.55264135 133.79088979 57.43606567 125.05645752 C51.67009447 112.82105992 45.92786798 100.57502548 40.21884155 88.31295776 C36.73440618 80.83092221 33.23012299 73.35866825 29.69921875 65.8984375 C29.33287827 65.12441589 28.96653778 64.35039429 28.58909607 63.55291748 C27.10881968 60.42587191 25.628354 57.29891608 24.14755249 54.17211914 C19.40823807 44.16042854 14.73907517 34.12294393 10.20458984 24.01635742 C7.38871429 17.76635144 4.36494427 11.65163344 1.1796875 5.58203125 C0 3 0 3 0 0 Z " fill="#040707" transform="translate(461,9)"/>
<path d="M0 0 C5.15921743 -0.22320235 10.31560509 -0.38610225 15.47851562 -0.49438477 C17.23259439 -0.53953126 18.98633651 -0.60086921 20.73925781 -0.67895508 C35.27322904 -1.30997029 35.27322904 -1.30997029 39.37792969 1.80395508 C40.95532736 4.1474677 41.99160982 6.36692189 43 9 C43.6857204 10.18653618 44.39223854 11.36145473 45.125 12.51953125 C48.19708167 17.91487468 51.19924857 23.29988975 53.9375 28.875 C56.36223424 33.81082888 58.94678091 38.63604257 61.625 43.4375 C61.9974585 44.11216309 62.36991699 44.78682617 62.75366211 45.48193359 C64.88772452 49.27550596 67.16524927 52.67141261 70 56 C70.39155273 55.24662354 70.39155273 55.24662354 70.79101562 54.47802734 C76.00123371 44.470485 81.30992386 34.55774984 86.96728516 24.79492188 C89.29686288 20.74597261 91.57064577 16.66523469 93.85571289 12.59106445 C94.20754639 11.96417725 94.55937988 11.33729004 94.921875 10.69140625 C95.22706055 10.14685791 95.53224609 9.60230957 95.84667969 9.04125977 C97.55310233 6.02106507 99.27893026 3.01187205 101 0 C113.54 0 126.08 0 139 0 C137.52584118 3.68539706 136.11600436 6.6997436 134.12890625 10.0703125 C133.56018799 11.0394458 132.99146973 12.0085791 132.40551758 13.00708008 C131.79732178 14.03599365 131.18912598 15.06490723 130.5625 16.125 C129.286189 18.29801892 128.01015037 20.47119782 126.734375 22.64453125 C126.10080078 23.7217041 125.46722656 24.79887695 124.81445312 25.90869141 C122.29586708 30.19964088 119.80158032 34.50438865 117.3125 38.8125 C116.86962646 39.57796143 116.42675293 40.34342285 115.97045898 41.13208008 C113.75502437 44.96154173 111.54254245 48.79269455 109.33203125 52.625 C103.66489085 62.44190012 97.93544387 72.21977237 92.15087891 81.96801758 C91.62413574 82.85642334 91.09739258 83.7448291 90.5546875 84.66015625 C90.08530762 85.45043213 89.61592773 86.24070801 89.13232422 87.05493164 C87.1003402 90.54540526 86.85420944 92.66969831 86.79467773 96.73486328 C86.77473251 97.93595734 86.75478729 99.13705139 86.73423767 100.37454224 C86.71752518 101.67664642 86.70081268 102.97875061 86.68359375 104.3203125 C86.66302375 105.66267538 86.64202727 107.00503179 86.62062073 108.34738159 C86.56540469 111.88188438 86.51599342 115.41644557 86.46777344 118.9510498 C86.41755496 122.55726312 86.36192363 126.1633926 86.30664062 129.76953125 C86.1985518 136.84629011 86.0995256 143.92309472 86 151 C75.11 151 64.22 151 53 151 C53.1134375 146.98199219 53.226875 142.96398437 53.34375 138.82421875 C54.91028439 100.17210123 54.91028439 100.17210123 38.06103516 66.57226562 C34.76954057 62.46433066 32.37147987 57.93000084 29.875 53.3125 C28.92229411 51.62645486 27.96525148 49.94285292 27.00390625 48.26171875 C26.52195801 47.41528809 26.04000977 46.56885742 25.54345703 45.69677734 C22.65937096 40.65761019 19.73712765 35.64071491 16.8125 30.625 C16.22364014 29.61445557 15.63478027 28.60391113 15.02807617 27.56274414 C12.43216421 23.11911723 9.82301691 18.68586575 7.1484375 14.2890625 C6.72715576 13.59603027 6.30587402 12.90299805 5.87182617 12.18896484 C5.11140387 10.94401041 4.3463289 9.70187924 3.57543945 8.46337891 C1.85277122 5.64981347 0.70724747 3.21077456 0 0 Z " fill="#040707" transform="translate(772,9)"/>
<path d="M0 0 C10.89 0 21.78 0 33 0 C33 49.83 33 99.66 33 151 C22.11 151 11.22 151 0 151 C0 101.17 0 51.34 0 0 Z " fill="#040707" transform="translate(932,9)"/>
<path d="M0 0 C5.64813133 5.00629822 8.68290898 8.79854394 9.25 16.3125 C8.76259807 23.50167851 5.96734589 27.75222538 0.8203125 32.5546875 C-3.34664165 35.86321333 -7.75297449 36.42753039 -12.9921875 36.23828125 C-19.78303115 35.43236401 -23.41327614 31.9143278 -27.6171875 26.9375 C-30.99503598 22.20469535 -30.41596747 16.55956518 -30 11 C-28.22300121 5.22475394 -23.87150001 1.39415452 -19 -2 C-12.26404071 -4.28448232 -6.13398552 -3.3563317 0 0 Z " fill="#5C328F" transform="translate(763,42)"/>
<path d="M0 0 C4.15343629 3.97934016 7.71719858 7.53568259 8.203125 13.48828125 C8.36713996 23.37018256 8.36713996 23.37018256 5 28 C-0.12101245 33.22973883 -3.45047324 35.76724415 -10.8125 36.25 C-16.97201715 36.12452835 -21.35890691 33.84664065 -25.8125 29.6875 C-30.22259456 24.96098609 -31.44395196 20.31326744 -31.25 13.94921875 C-30.40200826 7.33753312 -25.75917044 3.34111431 -20.9375 -0.75 C-14.48921041 -4.91018683 -6.31942773 -3.67675795 0 0 Z " fill="#5B328D" transform="translate(641,42)"/>
<path d="M0 0 C4.83236899 2.88083536 7.87586959 6.50154154 10.625 11.375 C12.1545408 17.64611727 11.71807062 22.46831925 8.56640625 28.046875 C5.06678436 33.07303818 1.30568137 35.98293371 -4.6875 37.4375 C-10.35788094 38.26228268 -14.83935016 37.8311758 -19.6953125 34.671875 C-24.42458138 30.91220518 -27.32225098 27.34026751 -28.09765625 21.171875 C-28.39815849 15.03854728 -27.9206409 10.57444112 -24.25 5.55859375 C-17.55955503 -1.67196526 -9.08912795 -2.57525292 0 0 Z " fill="#5C328E" transform="translate(760.75,91.0625)"/>
<path d="M0 0 C4.50388681 3.87543749 7.51672419 7.53740845 8.35546875 13.546875 C8.70453731 20.37729773 7.45313515 24.79647467 3 30 C-0.71173517 33.81205234 -4.72555229 35.53054654 -10 36 C-16.83428599 35.77182829 -21.49346927 33.69110782 -26.37109375 28.921875 C-30.12983747 24.48709824 -31.61373454 19.85888577 -31.34375 14.04296875 C-30.25119976 7.549744 -26.72154246 3.24955928 -21.78125 -0.87109375 C-15.43295831 -4.89446282 -6.00399386 -4.04920516 0 0 Z " fill="#5B328D" transform="translate(641,93)"/>
<path d="M0 0 C4.5044819 4.4043823 6.30201464 8.46813173 7 14.75 C6.74524249 20.23790143 4.6283349 24.69145348 0.80859375 28.61328125 C-4.92157085 33.62567993 -8.57588999 34.17023223 -16.23828125 34.0859375 C-22.84916743 33.52090449 -26.19007213 29.26681788 -30.23828125 24.49609375 C-33.32600748 20.16120774 -32.97239317 14.8902183 -32.4375 9.8125 C-30.67680653 3.997181 -27.54582389 0.15255793 -22.4375 -3.1875 C-14.67117307 -6.68569467 -6.54009693 -5.32807897 0 0 Z " fill="#5B328E" transform="translate(729.4375,130.1875)"/>
<path d="M0 0 C4.20696786 3.31521657 7.30254988 7.57488041 8.06640625 12.921875 C8.45098351 18.78667824 8.10075038 22.70659602 5.06640625 27.921875 C-0.14916013 33.26543074 -3.62413629 36.07041416 -11.18359375 36.234375 C-17.80879883 36.16149046 -20.92022339 34.99951156 -25.58203125 30.23828125 C-30.32629755 25.05968072 -31.27341654 21.12783725 -31.13671875 14.15625 C-30.6504964 8.80780414 -27.94906278 5.71842141 -24.18359375 2.171875 C-16.95961884 -3.74103369 -8.32666911 -4.64274883 0 0 Z " fill="#5B328E" transform="translate(676.93359375,128.078125)"/>
<path d="M0 0 C4.90021586 2.67482197 9.61534301 7.47541857 11.6875 12.75 C12.60068538 19.32493477 12.39219218 24.16966969 9 30 C4.7005778 34.57327075 1.22388561 37.5940073 -5.11328125 38.203125 C-11.34173574 38.33588069 -16.21340451 37.62497295 -20.953125 33.16015625 C-25.97162079 27.68265169 -27.40311171 23.76659402 -27.26953125 16.37109375 C-26.62026152 10.65940205 -23.85064601 6.37290489 -19.6875 2.5 C-13.79191481 -1.51519217 -6.79351713 -1.25338908 0 0 Z " fill="#5C328E" transform="translate(724,4)"/>
<path d="M0 0 C5.53424987 2.25163966 9.05406502 6.4235899 11.375 11.86328125 C12.95074526 17.25036034 12.69957537 22.04641961 10.4375 27.1875 C7.89262884 31.7157405 4.0893091 35.97848497 -0.94921875 37.64453125 C-7.5000774 38.78001342 -13.18183522 38.44780135 -19 35 C-23.05538537 31.10683005 -26.68200238 27.55301184 -27.203125 21.73046875 C-27.33173466 14.7533948 -26.37642454 10.62016039 -21.5625 5.3125 C-20.716875 4.549375 -19.87125 3.78625 -19 3 C-18.43667969 2.46890625 -17.87335937 1.9378125 -17.29296875 1.390625 C-12.269469 -1.65599495 -5.64298143 -0.71798186 0 0 Z " fill="#5C328E" transform="translate(673,4)"/>
<path d="M0 0 C-0.99 0.495 -0.99 0.495 -2 1 C-2.66 0.67 -3.32 0.34 -4 0 C-6.10053716 -0.14901491 -8.20687825 -0.22138453 -10.3125 -0.25 C-11.44300781 -0.27578125 -12.57351563 -0.3015625 -13.73828125 -0.328125 C-17.29365626 0.02954147 -19.04326802 1.09513196 -22 3 C-22.66 2.67 -23.32 2.34 -24 2 C-16.36147814 -4.57761604 -8.76689177 -4.38344589 0 0 Z " fill="#4E2F71" transform="translate(763,42)"/>
<path d="M0 0 C2.3125 0.1875 2.3125 0.1875 4 1 C1.02819057 2.89865603 -1.51460083 4.35455571 -5 5 C-2.75 2.4375 -2.75 2.4375 0 0 Z " fill="#442B62" transform="translate(744,40)"/>
</svg>
