<?xml version="1.0" encoding="UTF-8"?>
<svg version="1.1" xmlns="http://www.w3.org/2000/svg" width="1018" height="245">
<path d="M0 0 C3.12883232 2.57704213 5.5254072 5.46756932 8.015625 8.66015625 C8.78132812 7.79003906 8.78132812 7.79003906 9.5625 6.90234375 C18.16439218 -2.34011486 28.74352546 -8.02204938 41.49609375 -8.67578125 C54.60067069 -8.92548421 66.22499644 -7.40180762 77.015625 0.66015625 C78.046875 1.40265625 79.078125 2.14515625 80.140625 2.91015625 C87.54475331 9.99236594 90.46066953 17.87271145 93.015625 27.66015625 C93.1938552 28.30073093 93.3720854 28.94130562 93.55571651 29.60129166 C94.34064596 33.11517211 94.14490514 36.7003722 94.12915039 40.28417969 C94.12929642 41.15283157 94.12944244 42.02148346 94.1295929 42.91645813 C94.12889691 45.78417468 94.12111915 48.65182606 94.11328125 51.51953125 C94.11141596 53.50921595 94.10999258 55.4989011 94.10899353 57.48858643 C94.10517712 62.72301504 94.09535429 67.95741586 94.08428955 73.1918335 C94.07405662 78.53413517 94.06949187 83.87644134 94.06445312 89.21875 C94.05373126 99.69923095 94.03666532 110.17969129 94.015625 120.66015625 C90.74264965 121.5365417 87.87094328 121.78901364 84.47265625 121.79296875 C83.39822266 121.79425781 82.32378906 121.79554688 81.21679688 121.796875 C80.09853516 121.79300781 78.98027344 121.78914062 77.828125 121.78515625 C76.72919922 121.78902344 75.63027344 121.79289063 74.49804688 121.796875 C57.13163246 121.77616371 57.13163246 121.77616371 55.015625 119.66015625 C54.91187353 117.21314077 54.87200726 114.79343703 54.8737793 112.34570312 C54.87030487 111.57972809 54.86683044 110.81375305 54.86325073 110.02456665 C54.85587858 108.35433178 54.85054101 106.68408702 54.84696007 105.01383972 C54.8398057 102.3648177 54.82414372 99.71598214 54.80561829 97.0670166 C54.75312358 89.53266067 54.70523706 81.99840174 54.68969727 74.46386719 C54.67957589 69.8589212 54.65013782 65.25443661 54.60837746 60.64967346 C54.59611226 58.89876304 54.59093797 57.14778727 54.59317589 55.39683533 C54.89957037 42.40894369 54.89957037 42.40894369 50.015625 30.66015625 C46.00791971 26.75019987 42.73236085 25.51207765 37.203125 25.41015625 C31.51720357 25.4846443 28.01193791 26.77791836 23.828125 30.72265625 C18.00606338 40.15841129 18.54381977 50.77605831 18.50390625 61.48046875 C18.48703406 63.19254828 18.46888045 64.90461562 18.44950867 66.6166687 C18.40227805 71.09143257 18.3722953 75.56614698 18.34606934 80.04107666 C18.31612687 84.61993168 18.26964403 89.1986167 18.22460938 93.77734375 C18.13888331 102.73819182 18.07140254 111.69907517 18.015625 120.66015625 C14.50739653 121.60945303 11.39187697 121.78925587 7.74609375 121.79296875 C6.52728516 121.79425781 5.30847656 121.79554688 4.05273438 121.796875 C2.78236328 121.79300781 1.51199219 121.78914062 0.203125 121.78515625 C-1.6850293 121.79095703 -1.6850293 121.79095703 -3.61132812 121.796875 C-5.4453418 121.79494141 -5.4453418 121.79494141 -7.31640625 121.79296875 C-8.98280151 121.79127686 -8.98280151 121.79127686 -10.68286133 121.78955078 C-14.17374663 121.65273431 -17.5313818 121.17586645 -20.984375 120.66015625 C-20.99024124 119.69042374 -20.99610748 118.72069122 -21.00215149 117.72157288 C-21.05951297 108.55605848 -21.13234416 99.39077828 -21.22008991 90.22550297 C-21.26470363 85.51420383 -21.30397934 80.80298937 -21.33081055 76.09155273 C-21.35693361 71.5396681 -21.39739898 66.98811092 -21.44756126 62.43642998 C-21.46416932 60.70506316 -21.47572117 58.97363979 -21.48198891 57.24220467 C-21.19802134 42.60122632 -21.19802134 42.60122632 -27.359375 29.72265625 C-31.98150012 26.09098651 -35.8400971 25.18721421 -41.640625 25.3515625 C-46.3043748 25.96562289 -50.30983946 27.61780365 -53.3359375 31.30859375 C-56.88499428 37.15560097 -57.13651232 42.81961305 -57.18969727 49.47973633 C-57.19959686 50.25099854 -57.20949646 51.02226074 -57.21969604 51.81689453 C-57.25116698 54.35446145 -57.27601122 56.89204707 -57.30078125 59.4296875 C-57.32136323 61.19374566 -57.34236003 62.95779903 -57.36375427 64.72184753 C-57.41884645 69.35615141 -57.46831223 73.99049884 -57.51660156 78.62487793 C-57.56691064 83.35737975 -57.62254753 88.08981862 -57.67773438 92.82226562 C-57.78515865 102.10150867 -57.88663833 111.38080647 -57.984375 120.66015625 C-62.88098737 121.25252585 -67.70927462 121.78657915 -72.6484375 121.79296875 C-73.62554688 121.79425781 -74.60265625 121.79554688 -75.609375 121.796875 C-76.599375 121.79300781 -77.589375 121.78914062 -78.609375 121.78515625 C-80.10597656 121.79095703 -80.10597656 121.79095703 -81.6328125 121.796875 C-83.09460938 121.79494141 -83.09460938 121.79494141 -84.5859375 121.79296875 C-85.45557129 121.79184082 -86.32520508 121.79071289 -87.22119141 121.78955078 C-90.51735152 121.63519799 -93.72166024 121.14252057 -96.984375 120.66015625 C-97.79746418 104.12769046 -98.07943408 87.67410628 -97.86328125 71.125 C-97.83887849 68.896292 -97.81504076 66.66757775 -97.79173279 64.43885803 C-97.72989888 58.66709076 -97.66056602 52.895439 -97.58947754 47.1237793 C-97.51786433 41.19650381 -97.45361055 35.26914858 -97.38867188 29.34179688 C-97.26096444 17.78115938 -97.12462361 6.22064841 -96.984375 -5.33984375 C-86.424375 -5.33984375 -75.864375 -5.33984375 -64.984375 -5.33984375 C-63.994375 -1.37984375 -63.004375 2.58015625 -61.984375 6.66015625 C-60.56125 5.27828125 -59.138125 3.89640625 -57.671875 2.47265625 C-41.47395094 -12.13768718 -17.54447885 -12.33793387 0 0 Z " fill="#060909" transform="translate(647.984375,69.33984375)"/>
<path d="M0 0 C2.50922823 2.20496553 4.89172684 4.47503595 7.234375 6.85546875 C7.80929687 7.43167969 8.38421875 8.00789063 8.9765625 8.6015625 C21.11565408 21.71555522 25.64666666 41.37244447 25.1796875 58.90917969 C24.14755225 74.21665622 19.06206269 91.48798432 8.234375 102.85546875 C7.574375 102.85546875 6.914375 102.85546875 6.234375 102.85546875 C5.739375 104.34046875 5.739375 104.34046875 5.234375 105.85546875 C-8.69958629 118.14409144 -24.25029208 122.09117889 -42.375 121.09375 C-53.68346589 119.96659899 -62.813511 114.80758275 -70.765625 106.85546875 C-71.095625 127.31546875 -71.425625 147.77546875 -71.765625 168.85546875 C-81.12550221 169.52403141 -89.85685763 169.90219403 -99.140625 169.41796875 C-100.26984375 169.36576172 -101.3990625 169.31355469 -102.5625 169.25976562 C-105.29731278 169.13229554 -108.03153596 168.9974868 -110.765625 168.85546875 C-110.78895151 145.92519152 -110.80660295 122.99491623 -110.81743717 100.06462955 C-110.82260066 89.41848924 -110.82964435 78.77235629 -110.84106445 68.1262207 C-110.85100969 58.85059954 -110.85747804 49.5749837 -110.85971349 40.29935735 C-110.86102088 35.38479194 -110.86410845 30.47024177 -110.87135506 25.55568123 C-110.87811275 20.93552527 -110.88024248 16.31539092 -110.87873268 11.69523048 C-110.87900912 9.99440138 -110.88101573 8.29357159 -110.88483047 6.59274673 C-110.88976381 4.28092538 -110.88862464 1.96918694 -110.88587952 -0.34263611 C-110.88680131 -1.63959884 -110.8877231 -2.93656157 -110.88867283 -4.27282619 C-110.765625 -7.14453125 -110.765625 -7.14453125 -109.765625 -8.14453125 C-107.47411083 -8.232441 -105.17989976 -8.25147163 -102.88671875 -8.2421875 C-101.85672508 -8.24006508 -101.85672508 -8.24006508 -100.80592346 -8.23789978 C-98.60494699 -8.23228604 -96.40407091 -8.21973132 -94.203125 -8.20703125 C-92.71419417 -8.20201801 -91.22526176 -8.1974548 -89.73632812 -8.19335938 C-86.07939425 -8.18231218 -82.42251942 -8.16503838 -78.765625 -8.14453125 C-77.0111374 -3.83323699 -75.8393867 0.33033015 -74.765625 4.85546875 C-73.99992187 4.09363281 -73.99992187 4.09363281 -73.21875 3.31640625 C-53.43043829 -15.41933569 -21.73935584 -16.85721236 0 0 Z M-64.765625 31.85546875 C-72.15472468 41.79679227 -72.8533187 51.84354707 -71.765625 63.85546875 C-70.24353696 71.12867987 -66.34291432 76.98658513 -60.765625 81.85546875 C-53.05982984 86.74241605 -45.79937437 87.60127829 -36.765625 86.85546875 C-29.90706406 85.05869006 -23.37615766 80.93442603 -19.515625 74.90234375 C-14.52736448 65.29260658 -13.00674357 55.30804882 -15.5234375 44.64453125 C-18.78057834 35.28345717 -23.05590007 29.64135856 -31.765625 24.85546875 C-43.48925164 20.1660181 -55.97230108 22.85764893 -64.765625 31.85546875 Z " fill="#060909" transform="translate(332.765625,72.14453125)"/>
<path d="M0 0 C1.60279192 0.00015914 3.20558896 0.00585476 4.80834961 0.01586914 C5.65038437 0.01728409 6.49241913 0.01869904 7.35997009 0.02015686 C10.06024671 0.02577276 12.76044163 0.03832791 15.46069336 0.05102539 C17.28686404 0.05603834 19.11303602 0.06060161 20.93920898 0.06469727 C25.42556878 0.07574735 29.9118672 0.0930226 34.39819336 0.11352539 C34.40850082 0.88201309 34.41880829 1.65050079 34.4294281 2.442276 C34.52817481 9.75158918 34.63078485 17.06083386 34.73753262 24.37003422 C34.79225691 28.12605893 34.84558475 31.88209175 34.89550781 35.63818359 C34.94391049 39.27575076 34.99625975 42.91324322 35.05113411 46.55071831 C35.0712204 47.92547129 35.08998015 49.30024445 35.10726738 50.67503548 C35.19858439 57.8647707 35.38037104 65.04563232 35.78515625 72.22460938 C35.85046036 73.41126694 35.91576447 74.5979245 35.98304749 75.82054138 C36.70432058 81.54176114 38.63412304 86.80085806 43.14428711 90.57446289 C49.19731415 94.2453309 55.58042249 95.09692806 62.48413086 93.68774414 C67.87452867 92.00453563 71.55153994 89.00904401 74.39819336 84.11352539 C76.0769926 79.10778824 76.65974337 74.73424255 76.70117188 69.46582031 C76.71383087 68.37182922 76.71383087 68.37182922 76.72674561 67.2557373 C76.75233461 64.86848227 76.76461618 62.48135033 76.77709961 60.09399414 C76.79328842 58.42726175 76.81046986 56.76053872 76.82859802 55.09382629 C76.87412202 50.72336145 76.90901928 46.35288389 76.9407959 41.9822998 C76.99283679 34.96955058 77.05774637 27.95693832 77.12901115 20.94436073 C77.15185933 18.49475467 77.16811458 16.04516624 77.18373108 13.59550476 C77.19713271 12.10175375 77.21074707 10.60800462 77.22460938 9.11425781 C77.23887718 7.15403938 77.23887718 7.15403938 77.25343323 5.15422058 C77.39819336 2.11352539 77.39819336 2.11352539 78.39819336 0.11352539 C90.93819336 0.11352539 103.47819336 0.11352539 116.39819336 0.11352539 C116.47841098 19.9272772 116.47841098 19.9272772 116.49584961 28.41821289 C116.50777303 34.19624537 116.52182978 39.97421405 116.54907227 45.75219727 C116.57091347 50.41414206 116.58278564 55.07601836 116.58794785 59.73801041 C116.59162345 61.51046958 116.59880062 63.28292531 116.60965347 65.05535507 C116.71370077 82.76319787 116.71370077 82.76319787 114.39819336 91.11352539 C114.02694336 92.56758789 114.02694336 92.56758789 113.64819336 94.05102539 C107.72743979 108.55687163 98.8096164 118.87182706 84.29663086 125.05102539 C65.82201298 131.82339205 44.8910396 132.35635971 26.69506836 124.26586914 C13.16505096 117.47785021 4.4929703 109.20736197 -0.82446289 94.80102539 C-3.58221927 86.26087661 -4.75784461 78.19921067 -4.73120117 69.24462891 C-4.73295349 68.50379562 -4.73470581 67.76296234 -4.73651123 66.99967957 C-4.74086998 64.58057226 -4.73801517 62.16153952 -4.73461914 59.74243164 C-4.7352934 58.05232225 -4.73626444 56.36221295 -4.73751831 54.67210388 C-4.73898673 51.1461392 -4.73686643 47.62019999 -4.73217773 44.09423828 C-4.72645019 39.56569451 -4.72978384 35.03720961 -4.7357502 30.50866795 C-4.73935283 27.02668305 -4.73821914 23.54471228 -4.73562241 20.06272697 C-4.73495389 18.39169241 -4.73577893 16.72065657 -4.73810196 15.04962349 C-4.7406269 12.72526738 -4.7367916 10.40100894 -4.73120117 8.07666016 C-4.7332254 7.38216766 -4.73524963 6.68767517 -4.73733521 5.97213745 C-4.71123964 0.14849362 -4.71123964 0.14849362 0 0 Z " fill="#060809" transform="translate(772.601806640625,63.886474609375)"/>
<path d="M0 0 C0.94101562 0.31195313 1.88203125 0.62390625 2.8515625 0.9453125 C8.67462201 3.03879915 13.26893175 6.03541767 18 10 C10.61702128 28.34042553 10.61702128 28.34042553 6 37 C1.7915295 35.70316761 -1.93422527 34.07672007 -5.8125 32 C-14.16227042 27.773573 -22.7317059 25.50278586 -32.0859375 27.4296875 C-34.28287824 28.06705269 -34.28287824 28.06705269 -37 30 C-38.49608434 33.38875038 -38.49608434 33.38875038 -38 37 C-34.53314689 40.40429335 -31.09661997 41.91270048 -26.51953125 43.40234375 C-25.27236328 43.81806641 -24.02519531 44.23378906 -22.74023438 44.66210938 C-21.4313 45.08819436 -20.12205289 45.5133198 -18.8125 45.9375 C10.85315342 55.59738538 10.85315342 55.59738538 17.9375 68.9375 C22.57511754 79.39612715 23.43919871 90.03755412 20 101 C17.786986 106.71340633 14.54711571 111.84263706 10 116 C9.34 116 8.68 116 8 116 C8 116.66 8 117.32 8 118 C-0.48539629 122.5816119 -8.41722694 126.2626915 -18 128 C-18.72058594 128.14179688 -19.44117188 128.28359375 -20.18359375 128.4296875 C-38.30457119 131.23861028 -60.34502061 126.21267099 -75.6484375 116.28125 C-77.49280207 114.90930162 -79.27134596 113.51391441 -81 112 C-80.44950705 107.73299492 -79.45328701 104.42596312 -77.49609375 100.6015625 C-77.00302734 99.62832031 -76.50996094 98.65507812 -76.00195312 97.65234375 C-75.48568359 96.65332031 -74.96941406 95.65429688 -74.4375 94.625 C-73.91736328 93.60277344 -73.39722656 92.58054687 -72.86132812 91.52734375 C-71.58139526 89.01444804 -70.29412869 86.50560608 -69 84 C-64.78592372 84.73551096 -62.06271265 86.0091336 -58.4375 88.3125 C-49.47102919 93.61384406 -41.46448164 96.32343789 -31.0625 96.5625 C-30.3403833 96.58948975 -29.6182666 96.61647949 -28.87426758 96.64428711 C-24.90509984 96.61506454 -23.16184657 96.12947726 -20.03125 93.625 C-17.85101663 91.1945133 -17.85101663 91.1945133 -17.4375 88.4375 C-18.18957549 85.1785062 -19.45423876 84.15507511 -22 82 C-25.02941029 80.58293565 -25.02941029 80.58293565 -28.4375 79.5 C-29.68144531 79.07589844 -30.92539062 78.65179688 -32.20703125 78.21484375 C-35.66592261 77.1070011 -39.13768479 76.07630334 -42.625 75.0625 C-49.14764101 73.10092336 -55.04537805 70.28379887 -61 67 C-61.9384375 66.48566406 -62.876875 65.97132813 -63.84375 65.44140625 C-64.5553125 64.96574219 -65.266875 64.49007812 -66 64 C-66 63.34 -66 62.68 -66 62 C-66.91072266 61.60941406 -66.91072266 61.60941406 -67.83984375 61.2109375 C-73.15165815 58.23324769 -75.24130596 51.95492301 -76.875 46.375 C-79.35571257 34.89449299 -77.62612419 25.24533128 -72.0078125 15.06640625 C-65.32658047 4.86257913 -53.43959697 -0.95184185 -41.71875 -3.52734375 C-27.46764531 -5.33867113 -13.57840002 -4.86140247 0 0 Z " fill="#060909" transform="translate(990,65)"/>
<path d="M0 0 C0 12.87 0 25.74 0 39 C11.22 39 22.44 39 34 39 C34.020625 43.929375 34.04125 48.85875 34.0625 53.9375 C34.071604 55.49460693 34.08070801 57.05171387 34.09008789 58.65600586 C34.09258545 59.87167236 34.09508301 61.08733887 34.09765625 62.33984375 C34.10289307 63.59144287 34.10812988 64.84304199 34.11352539 66.13256836 C34 69 34 69 33 70 C30.55169574 70.08843793 28.13179401 70.11528752 25.68359375 70.09765625 C24.58701195 70.09553383 24.58701195 70.09553383 23.46827698 70.09336853 C21.12464368 70.08775408 18.78110461 70.07519922 16.4375 70.0625 C14.85221492 70.05748686 13.26692834 70.05292363 11.68164062 70.04882812 C7.7877239 70.03777997 3.89387795 70.02050572 0 70 C0.06712759 77.42016322 0.15698496 84.83980485 0.26245117 92.25952148 C0.29565129 94.78224481 0.32369842 97.30504154 0.34643555 99.82788086 C0.38007096 103.45979006 0.43239367 107.09102957 0.48828125 110.72265625 C0.49467117 111.84583755 0.5010611 112.96901886 0.50764465 114.12623596 C0.6444759 121.45765485 1.01346316 127.08812659 6.5 132.4375 C15.09644092 136.27519684 23.37992786 133.50889116 32 131 C33.34527797 135.05864282 34.67411108 139.12248583 36 143.1875 C36.57234375 144.91323242 36.57234375 144.91323242 37.15625 146.67382812 C37.5171875 147.78564453 37.878125 148.89746094 38.25 150.04296875 C38.75273437 151.57473755 38.75273437 151.57473755 39.265625 153.13745117 C39.97350131 155.89670974 40.14558868 158.16784522 40 161 C38.16991133 161.79913872 36.33573034 162.58890755 34.5 163.375 C33.4790625 163.81585938 32.458125 164.25671875 31.40625 164.7109375 C17.77568801 169.86929238 0.39441649 170.42770147 -13.34375 165.2578125 C-24.20218361 160.11602482 -31.00446483 153.02087277 -35.95703125 142.1015625 C-38.96629946 133.15265255 -39.27348702 124.4998837 -39.1953125 115.1171875 C-39.1924826 113.82177032 -39.18965271 112.52635315 -39.18673706 111.19168091 C-39.17917608 107.78210435 -39.15959446 104.3727038 -39.1373291 100.9631958 C-39.11670627 97.47027974 -39.10770055 93.97733466 -39.09765625 90.484375 C-39.07633973 83.65617864 -39.04229736 76.82809782 -39 70 C-39.85549438 70.00785522 -39.85549438 70.00785522 -40.72827148 70.01586914 C-43.29800323 70.03658221 -45.86771747 70.0496419 -48.4375 70.0625 C-49.33533203 70.07087891 -50.23316406 70.07925781 -51.15820312 70.08789062 C-52.43920898 70.09272461 -52.43920898 70.09272461 -53.74609375 70.09765625 C-54.53685303 70.10289307 -55.3276123 70.10812988 -56.14233398 70.11352539 C-58 70 -58 70 -59 69 C-59.10003289 66.86646826 -59.13081048 64.72962458 -59.1328125 62.59375 C-59.13410156 61.29308594 -59.13539063 59.99242187 -59.13671875 58.65234375 C-59.13462402 57.97155762 -59.1325293 57.29077148 -59.13037109 56.58935547 C-59.1250224 54.50871485 -59.1303168 52.42829011 -59.13671875 50.34765625 C-59.13542969 49.04699219 -59.13414062 47.74632812 -59.1328125 46.40625 C-59.13168457 45.20291016 -59.13055664 43.99957031 -59.12939453 42.75976562 C-59 40 -59 40 -58 39 C-56.58429877 38.91348389 -55.164405 38.89295096 -53.74609375 38.90234375 C-52.9770874 38.90484131 -52.20808105 38.90733887 -51.41577148 38.90991211 C-50.43294189 38.91901611 -49.4501123 38.92812012 -48.4375 38.9375 C-43.7659375 38.9684375 -43.7659375 38.9684375 -39 39 C-39 28.11 -39 17.22 -39 6 C-35.266875 5.21625 -31.53375 4.4325 -27.6875 3.625 C-26.53467529 3.38217285 -25.38185059 3.1393457 -24.1940918 2.88916016 C-21.13150116 2.24876477 -18.0663134 1.62231629 -15 1 C-13.97471191 0.78698242 -12.94942383 0.57396484 -11.89306641 0.35449219 C-10.9241748 0.16274414 -9.9552832 -0.02900391 -8.95703125 -0.2265625 C-7.66696167 -0.48687256 -7.66696167 -0.48687256 -6.35083008 -0.75244141 C-4 -1 -4 -1 0 0 Z " fill="#07090A" transform="translate(426,25)"/>
<path d="M0 0 C12.54 0 25.08 0 38 0 C38 41.58 38 83.16 38 126 C33.31102352 126.78149608 29.36665607 127.12860947 24.66796875 127.1328125 C23.6521447 127.13424759 23.6521447 127.13424759 22.61579895 127.13571167 C21.19642035 127.13638789 19.77703856 127.13457281 18.35766602 127.13037109 C16.17652572 127.12497284 13.99558744 127.13035619 11.81445312 127.13671875 C10.43229121 127.13605869 9.05012942 127.13477902 7.66796875 127.1328125 C6.41266357 127.13168457 5.1573584 127.13055664 3.86401367 127.12939453 C1 127 1 127 0 126 C-0.09605864 124.36776544 -0.12187821 122.7313561 -0.12025452 121.09629822 C-0.12162918 120.03474014 -0.12300385 118.97318207 -0.12442017 117.87945557 C-0.12082489 116.70485779 -0.11722961 115.53026001 -0.11352539 114.32006836 C-0.11367142 113.09097244 -0.11381744 111.86187653 -0.1139679 110.59553528 C-0.11338892 107.21551328 -0.10835964 103.83555171 -0.10139394 100.45554042 C-0.09515988 96.92678806 -0.09455656 93.39803497 -0.09336853 89.86927795 C-0.09025537 83.18276881 -0.08204218 76.49627594 -0.07201904 69.80977398 C-0.06085744 62.19925697 -0.05534733 54.5887392 -0.05032361 46.97821605 C-0.03985956 31.31879966 -0.02151426 15.6594057 0 0 Z " fill="#050808" transform="translate(485,64)"/>
<path d="M0 0 C5.68266704 4.0084189 8.75112439 8.95238797 10.4765625 15.66015625 C11.23171094 21.48434708 9.79999779 26.38692555 7.12890625 31.53125 C2.24771704 37.33590744 -2.45291669 41.69321411 -10.27734375 42.49609375 C-17.49261472 42.80496665 -23.19359059 41.05284816 -28.93359375 36.65625 C-33.86999264 32.08132654 -36.34344284 26.42864688 -36.62109375 19.71875 C-36.27790066 12.93772788 -33.9375028 7.17098502 -29.18359375 2.28125 C-20.28281097 -4.64158105 -9.85399865 -5.57397903 0 0 Z " fill="#603292" transform="translate(189.18359375,55.71875)"/>
<path d="M0 0 C4.44979981 3.76210347 7.51003956 7.62933835 8.71875 13.453125 C9.41871751 21.8152368 8.41435408 26.70923044 3.46875 33.578125 C-1.98428917 39.27902959 -6.74680165 41.12161413 -14.5078125 41.546875 C-21.35330355 41.31547812 -26.82229036 38.87731568 -31.7734375 34.16796875 C-36.82326523 28.42477089 -37.95642361 22.93982971 -37.66015625 15.3515625 C-36.77364857 8.5702357 -33.61554163 3.87730384 -28.25390625 -0.2890625 C-19.33927202 -5.97324512 -8.71727665 -6.2164186 0 0 Z " fill="#080A0A" transform="translate(518.28125,9.546875)"/>
<path d="M0 0 C4.6426633 4.33383869 7.59023605 8.631309 8.37109375 15.05078125 C8.52152449 22.43958529 8.05333135 27.42609935 3 33 C-2.16399333 38.36815121 -6.88515979 40.99302706 -14.4375 41.3125 C-21.53459297 41.12229315 -27.8412437 37.77472977 -33 33 C-37.3945135 27.09196825 -38.73987658 21.27985706 -38 14 C-36.38227146 7.5409809 -33.49598126 2.98543964 -28.25 -1.1875 C-18.96995275 -6.36291097 -8.83260716 -6.19212249 0 0 Z " fill="#613292" transform="translate(191,117)"/>
<path d="M0 0 C4.44535488 3.66505323 7.07298606 8.18787114 8.203125 13.81640625 C8.83517784 21.14821923 7.46487089 27.87753843 2.66015625 33.6796875 C-3.00940966 38.90814302 -9.70436156 41.5335959 -17.43359375 41.2265625 C-24.61193761 39.98073423 -30.17128587 36.1881507 -34.640625 30.5625 C-38.62690631 24.54267653 -38.46836015 18.91374934 -37.796875 11.81640625 C-36.12142621 5.60620983 -32.15988635 1.22923165 -26.796875 -2.18359375 C-17.38578853 -6.97660062 -8.68790082 -5.66899189 0 0 Z " fill="#613292" transform="translate(45.796875,57.18359375)"/>
<path d="M0 0 C5.33782364 3.81930484 8.897776 9.19220346 10.265625 15.62109375 C10.99477089 21.94035816 9.37520779 27.16399493 6.265625 32.62109375 C1.75708467 38.06594493 -3.7327934 41.48602506 -10.734375 42.62109375 C-16.96201324 42.86552324 -22.69720895 41.32730129 -27.734375 37.62109375 C-33.36568336 32.18931993 -36.47414057 26.50247929 -36.734375 18.62109375 C-36.19929797 12.11623573 -34.15738563 6.61935123 -29.12890625 2.21484375 C-20.03212375 -4.69308821 -10.01515116 -5.55872383 0 0 Z " fill="#613292" transform="translate(146.734375,13.37890625)"/>
<path d="M0 0 C5.62311371 3.32221541 9.69328237 8.03606934 12.125 14.0625 C13.3880865 21.78136192 12.60474589 27.69119378 8.6875 34.5 C4.28437844 39.5006224 -0.39861665 43.03573246 -7.14453125 43.8359375 C-15.55588615 43.94617806 -20.63355951 42.5936545 -27.0625 37.1875 C-32.68430094 30.47257109 -33.92874421 26.31831714 -33.63671875 17.52734375 C-33.24729642 13.89117139 -32.41196945 11.49924207 -30.3125 8.5 C-29.796875 7.654375 -29.28125 6.80875 -28.75 5.9375 C-21.12209842 -1.69040158 -10.0921572 -4.35309682 0 0 Z " fill="#613293" transform="translate(144.3125,156.5)"/>
<path d="M0 0 C5.39829364 3.08350533 8.64796158 6.82122322 10.95703125 12.6640625 C12.71436118 19.61752627 12.44644146 26.90110603 8.76171875 33.1328125 C5.03741091 38.09086937 0.35159872 40.98987089 -5.5 42.8125 C-13.57275302 43.94268542 -19.7819459 42.41673599 -26.5 37.8125 C-31.82344545 33.28055003 -34.14811397 27.09676959 -34.875 20.3125 C-34.06295017 12.73336823 -31.19446902 6.93622497 -25.5 1.8125 C-17.95237061 -3.91154108 -8.40516497 -3.91745152 0 0 Z " fill="#613292" transform="translate(84.5,157.1875)"/>
<path d="M0 0 C5.09770405 4.15235518 9.34689462 8.6532711 10.515625 15.2890625 C11.01454953 22.23461709 9.84402406 28.66640933 5.6640625 34.35546875 C0.3996408 39.41784442 -4.79359431 42.00123443 -12.0859375 42.73046875 C-18.19817452 42.52010495 -23.8865369 40.55677168 -28.45703125 36.44921875 C-34.33780772 29.89600422 -35.81291884 25.46248847 -35.64453125 16.6171875 C-35.05307699 10.36574052 -32.64611955 6.33145629 -28.1484375 2.04296875 C-19.93803812 -4.35066141 -8.98006691 -5.89449889 0 0 Z " fill="#613293" transform="translate(43.3359375,115.64453125)"/>
<path d="M0 0 C4.81550337 3.32949651 6.87312957 7.42407621 8.68359375 12.85546875 C9.35359783 20.26944833 9.3283549 26.77110327 4.68359375 32.85546875 C-0.80630657 38.68360937 -6.26290858 41.31856891 -14.31640625 41.85546875 C-22.63436389 41.18103975 -28.06239043 37.28074856 -33.69140625 31.35546875 C-37.04316612 26.19891511 -38.16723891 20.9513078 -37.31640625 14.85546875 C-35.47839052 7.74553964 -32.61990491 2.75334649 -26.31640625 -1.14453125 C-16.97780437 -6.15688287 -9.14644845 -4.90529274 0 0 Z " fill="#613293" transform="translate(87.31640625,14.14453125)"/>
<path d="M0 0 C4.44535488 3.66505323 7.07298606 8.18787114 8.203125 13.81640625 C8.83517784 21.14821923 7.46487089 27.87753843 2.66015625 33.6796875 C-3.00940966 38.90814302 -9.70436156 41.5335959 -17.43359375 41.2265625 C-24.61193761 39.98073423 -30.17128587 36.1881507 -34.640625 30.5625 C-38.62690631 24.54267653 -38.46836015 18.91374934 -37.796875 11.81640625 C-36.12142621 5.60620983 -32.15988635 1.22923165 -26.796875 -2.18359375 C-17.38578853 -6.97660062 -8.68790082 -5.66899189 0 0 Z M-31.734375 4.75390625 C-35.95125352 11.01533194 -36.49578817 16.40137432 -35.796875 23.81640625 C-33.81028971 29.46249075 -30.21948924 32.82131217 -25.671875 36.56640625 C-19.37243466 39.30529335 -12.96946426 39.59892256 -6.484375 37.31640625 C-1.79755566 35.16703687 1.56062482 32.26282721 4.203125 27.81640625 C6.34316475 21.52838821 6.34777669 13.45264401 3.640625 7.37890625 C0.78303251 2.48017626 -3.4897708 -0.41455902 -8.796875 -2.18359375 C-17.49211219 -3.05311747 -25.67143752 -2.08678414 -31.734375 4.75390625 Z " fill="#401D5B" transform="translate(45.796875,57.18359375)"/>
<path d="M0 0 C5.68266704 4.0084189 8.75112439 8.95238797 10.4765625 15.66015625 C11.23171094 21.48434708 9.79999779 26.38692555 7.12890625 31.53125 C2.24771704 37.33590744 -2.45291669 41.69321411 -10.27734375 42.49609375 C-17.49261472 42.80496665 -23.19359059 41.05284816 -28.93359375 36.65625 C-33.86999264 32.08132654 -36.34344284 26.42864688 -36.62109375 19.71875 C-36.27790066 12.93772788 -33.9375028 7.17098502 -29.18359375 2.28125 C-20.28281097 -4.64158105 -9.85399865 -5.57397903 0 0 Z M-30.05859375 6.15625 C-33.96517966 11.90122927 -35.11182262 17.43556206 -34.18359375 24.28125 C-32.13158951 30.78703616 -28.3743696 34.96006596 -22.37109375 38.28515625 C-16.92467324 40.73384934 -11.93416684 40.74101086 -6.18359375 39.28125 C-2.92364902 37.9645456 0.12116689 36.55900354 2.81640625 34.28125 C3.61035232 32.20031064 3.61035232 32.20031064 3.81640625 30.28125 C4.47640625 30.28125 5.13640625 30.28125 5.81640625 30.28125 C8.77851649 23.74336525 8.66533254 17.32739729 6.75390625 10.46875 C3.77383902 5.56605875 0.18573146 2.4659126 -4.93359375 -0.09375 C-14.55946382 -1.94487886 -23.18653124 -1.43498184 -30.05859375 6.15625 Z " fill="#43245E" transform="translate(189.18359375,55.71875)"/>
<path d="M0 0 C4.81550337 3.32949651 6.87312957 7.42407621 8.68359375 12.85546875 C9.35410291 20.27503727 9.32333 26.76411911 4.68359375 32.85546875 C1.20102058 36.62688093 -1.98475283 39.53233824 -7.31640625 39.85546875 C-7.31640625 39.19546875 -7.31640625 38.53546875 -7.31640625 37.85546875 C-6.24390625 37.29859375 -5.17140625 36.74171875 -4.06640625 36.16796875 C0.33210306 33.63549369 2.78192942 30.79404706 4.93359375 26.16796875 C6.13798164 20.8485889 6.97954057 15.57379623 4.5625 10.50390625 C3.67683372 9.12397295 2.75075076 7.76872603 1.77734375 6.44921875 C0.68359375 4.85546875 0.68359375 4.85546875 0.68359375 2.85546875 C-0.97625423 2.17200193 -2.6447743 1.5095856 -4.31640625 0.85546875 C-5.24453125 0.48421875 -6.17265625 0.11296875 -7.12890625 -0.26953125 C-14.02012285 -2.16123777 -19.01664046 -1.43660696 -25.3359375 1.65234375 C-29.76805411 4.34483274 -31.69520675 8.0880431 -33.31640625 12.85546875 C-33.98001187 19.25883204 -34.24655316 25.48426797 -30.31640625 30.85546875 C-23.65787537 37.36603228 -17.22532825 38.18641927 -8.31640625 38.85546875 C-9.31640625 40.85546875 -9.31640625 40.85546875 -11.31640625 41.60546875 C-18.57654509 42.21048032 -24.02551193 40.00162054 -29.59375 35.4296875 C-34.87923303 30.59964291 -36.98010464 26.21848485 -37.69140625 19.10546875 C-37.49948577 13.21238096 -35.5476663 7.54992709 -31.7734375 2.9921875 C-22.02575761 -5.99709167 -11.32879283 -6.07569654 0 0 Z " fill="#3E1C5F" transform="translate(87.31640625,14.14453125)"/>
<path d="M0 0 C5.39829364 3.08350533 8.64796158 6.82122322 10.95703125 12.6640625 C12.71436118 19.61752627 12.44644146 26.90110603 8.76171875 33.1328125 C5.03741091 38.09086937 0.35159872 40.98987089 -5.5 42.8125 C-13.57275302 43.94268542 -19.7819459 42.41673599 -26.5 37.8125 C-31.82344545 33.28055003 -34.14811397 27.09676959 -34.875 20.3125 C-34.06295017 12.73336823 -31.19446902 6.93622497 -25.5 1.8125 C-17.95237061 -3.91154108 -8.40516497 -3.91745152 0 0 Z M-27.984375 6.94921875 C-31.67341876 11.48446069 -32.88182298 17.31116098 -32.375 23.0625 C-31.52326275 26.71280251 -30.36304075 29.57242913 -28.5 32.8125 C-27.84 32.8125 -27.18 32.8125 -26.5 32.8125 C-26.24089844 33.42609375 -25.98179688 34.0396875 -25.71484375 34.671875 C-23.62362045 38.35673149 -20.43827599 39.56144312 -16.5 40.8125 C-9.42596047 41.83921111 -3.3238068 41.11417547 2.5 36.8125 C7.18855482 32.44688135 9.54755007 27.93233789 9.8125 21.5625 C9.64159108 15.85604123 8.7464388 10.40838484 4.91796875 5.984375 C-0.70282564 0.93913036 -5.49065277 -0.62301319 -13.01171875 -0.43359375 C-18.89926825 0.14869137 -23.67861605 3.04106367 -27.984375 6.94921875 Z " fill="#3D195B" transform="translate(84.5,157.1875)"/>
<path d="M0 0 C5.62311371 3.32221541 9.69328237 8.03606934 12.125 14.0625 C13.3880865 21.78136192 12.60474589 27.69119378 8.6875 34.5 C4.28437844 39.5006224 -0.39861665 43.03573246 -7.14453125 43.8359375 C-15.55588615 43.94617806 -20.63355951 42.5936545 -27.0625 37.1875 C-32.68430094 30.47257109 -33.92874421 26.31831714 -33.63671875 17.52734375 C-33.24729642 13.89117139 -32.41196945 11.49924207 -30.3125 8.5 C-29.796875 7.654375 -29.28125 6.80875 -28.75 5.9375 C-21.12209842 -1.69040158 -10.0921572 -4.35309682 0 0 Z M-29.3125 10.5 C-32.43827642 15.52842293 -31.98006595 22.05900098 -30.8828125 27.71484375 C-29.20466776 33.1118401 -26.03640852 36.4728423 -21.3125 39.5 C-15.15417395 42.45721598 -8.15105599 42.82305258 -1.671875 40.58984375 C4.33703206 37.49585353 7.28750124 33.78999708 9.9375 27.5625 C11.49547054 21.20078695 10.8301195 16.46824214 8.01953125 10.6484375 C5.22509138 6.14127642 1.54812024 3.38986186 -3.1875 1.125 C-14.24855377 -1.08721075 -22.08789095 1.77189123 -29.3125 10.5 Z " fill="#3F1D5E" transform="translate(144.3125,156.5)"/>
<path d="M0 0 C6.03097369 3.34738005 9.33693897 7.8527277 12.125 14.0625 C13.70833563 21.50417745 12.48606804 27.4434637 8.75 34 C4.24145967 39.44485118 -1.2484184 42.86493131 -8.25 44 C-14.47763824 44.24442949 -20.21283395 42.70620754 -25.25 39 C-30.8406932 33.60740223 -34.01738983 27.85401414 -34.25 20 C-33.375 16.875 -33.375 16.875 -32.25 15 C-31.92 15 -31.59 15 -31.25 15 C-31.22421875 15.70125 -31.1984375 16.4025 -31.171875 17.125 C-30.6949348 25.10290885 -29.40726705 31.46610573 -23.25 36.9375 C-17.74975875 40.71891586 -11.77225755 40.67658273 -5.25 40 C-2.34941907 38.98503719 0.13559774 37.59542588 2.75 36 C3.44609375 35.73058594 4.1421875 35.46117187 4.859375 35.18359375 C8.22391334 33.07728153 8.40063615 29.62251498 9.26953125 25.9453125 C10.40964299 18.95633485 9.29718932 13.58703208 5.28125 7.7265625 C1.31225265 3.25131549 -4.04348313 1.14959436 -9.9375 0.75 C-14.49347561 0.7920293 -18.11277028 2.22952254 -22.25 4 C-23.24 4.33 -24.23 4.66 -25.25 5 C-25.58 5.825 -25.91 6.65 -26.25 7.5 C-26.745 8.7375 -26.745 8.7375 -27.25 10 C-28.24 10.33 -29.23 10.66 -30.25 11 C-29.77018228 6.68164056 -27.50012912 4.70844093 -24.25 2 C-16.31344507 -2.83707194 -8.57436228 -3.79225918 0 0 Z " fill="#401C5F" transform="translate(144.25,12)"/>
<path d="M0 0 C5.09770405 4.15235518 9.34689462 8.6532711 10.515625 15.2890625 C11.01454953 22.23461709 9.84402406 28.66640933 5.6640625 34.35546875 C0.3664997 39.44971358 -4.84699316 42.07410227 -12.2109375 42.66796875 C-16.6897555 42.57285872 -20.24579714 41.10838605 -24.3359375 39.35546875 C-24.3359375 38.36546875 -24.3359375 37.37546875 -24.3359375 36.35546875 C-23.3459375 37.01546875 -22.3559375 37.67546875 -21.3359375 38.35546875 C-14.14403351 39.76994294 -7.71237652 40.09627691 -1.140625 36.59375 C3.09176921 33.68970462 5.04808594 30.1075354 6.6640625 25.35546875 C7.33313267 18.89937609 7.53002278 12.82113674 3.6640625 7.35546875 C-0.87736972 2.23180163 -4.24489197 0.07621766 -11.125 -0.6015625 C-16.87776755 -0.7133654 -21.65408877 0.45504996 -26.2109375 4.04296875 C-30.79201086 8.45397907 -32.47240446 13.05819648 -32.7109375 19.35546875 C-32.49866519 26.01677588 -29.88937186 30.77150047 -26.3359375 36.35546875 C-30.35264284 34.61317989 -32.15142112 32.63135727 -34.34765625 28.8984375 C-36.56830701 23.184431 -36.29112094 16.81098532 -34.671875 10.953125 C-31.77633133 4.39408911 -26.63600293 0.01158982 -20.0234375 -2.58203125 C-13.18330383 -4.5396845 -6.01695237 -3.94951613 0 0 Z " fill="#401E5E" transform="translate(43.3359375,115.64453125)"/>
<path d="M0 0 C4.29157993 4.00610898 7.68960027 8.19422941 8.1796875 14.203125 C8.36128284 20.45807573 8.36128284 20.45807573 6 24 C5.94392578 22.80503906 5.94392578 22.80503906 5.88671875 21.5859375 C5.4000629 13.7421902 4.6772516 8.33420539 -1.1875 2.75 C-6.17993953 -1.23767183 -11.12376844 -2.27451007 -17.4375 -2 C-23.53145039 -1.08274449 -28.61584164 2.006984 -32.453125 6.82421875 C-35.41559043 11.9668084 -35.88854339 17.1874453 -35 23 C-33.12187758 29.62038152 -28.9114166 33.66328243 -23 37 C-15.85002949 39.26807575 -10.40042335 38.14516015 -3.8828125 34.875 C-2 34 -2 34 0 34 C0.2475 33.443125 0.495 32.88625 0.75 32.3125 C2.21606015 29.60028873 4.02989471 27.36412635 6 25 C6.08722945 28.48917806 5.45091017 30.48846326 3.140625 33.109375 C-3.15279784 38.89594499 -8.17019946 41.48046785 -16.76953125 41.25 C-22.83952054 40.56965094 -28.55947016 37.10996931 -33 33 C-37.3945135 27.09196825 -38.73987658 21.27985706 -38 14 C-36.38227146 7.5409809 -33.49598126 2.98543964 -28.25 -1.1875 C-18.96995275 -6.36291097 -8.83260716 -6.19212249 0 0 Z " fill="#3E1E5B" transform="translate(191,117)"/>
<path d="M0 0 C0.33 0 0.66 0 1 0 C0.87431641 1.35931641 0.87431641 1.35931641 0.74609375 2.74609375 C-0.88144843 15.45237382 -0.88144843 15.45237382 3.5625 26.875 C9.4690568 32.93588488 16.90138259 33.5187297 25 34 C24 36 24 36 22 36.75 C14.73986116 37.35501157 9.29089432 35.14615179 3.72265625 30.57421875 C-1.56282678 25.74417416 -3.66369839 21.3630161 -4.375 14.25 C-4.27501036 9.09053455 -2.12242192 4.62384776 0 0 Z " fill="#3F1C5E" transform="translate(54,19)"/>
<path d="M0 0 C0.33 0 0.66 0 1 0 C1.63532377 6.09910823 1.05876841 10.15324367 -2.5078125 15.2109375 C-6.65733711 20.18602198 -11.26767784 23.55726937 -17.83203125 24.3359375 C-26.38442947 24.4480266 -31.43832304 23.03121443 -37.9375 17.5 C-39.85185954 15.17956419 -40.67302717 13.94275545 -41 11 C-40.29875 11.7425 -39.5975 12.485 -38.875 13.25 C-32.20378343 19.63116367 -27.04194209 21.33353611 -18.0234375 21.30078125 C-13.76345997 20.87698504 -11.47861 19.41990261 -8 17 C-7.34 17 -6.68 17 -6 17 C-4.10500215 13.55144536 -3.00359885 10.01199615 -1.875 6.25 C-1.34519531 4.49429688 -1.34519531 4.49429688 -0.8046875 2.703125 C-0.53914063 1.81109375 -0.27359375 0.9190625 0 0 Z " fill="#3C1958" transform="translate(155,176)"/>
<path d="M0 0 C5.7957881 3.19452887 9.65649093 7.71947278 11.75 14 C11.09 14.99 10.43 15.98 9.75 17 C9.44707031 16.32453125 9.14414063 15.6490625 8.83203125 14.953125 C5.84705852 8.59742922 3.53965189 4.68428973 -3.0625 1.75 C-10.42674204 0.01723717 -15.49000222 1.10714064 -22.25 4 C-23.24 4.33 -24.23 4.66 -25.25 5 C-25.58 5.825 -25.91 6.65 -26.25 7.5 C-26.745 8.7375 -26.745 8.7375 -27.25 10 C-28.24 10.33 -29.23 10.66 -30.25 11 C-29.77018228 6.68164056 -27.50012912 4.70844093 -24.25 2 C-16.31344507 -2.83707194 -8.57436228 -3.79225918 0 0 Z " fill="#351652" transform="translate(144.25,12)"/>
<path d="M0 0 C0.99 0.33 1.98 0.66 3 1 C1.8553125 2.0828125 1.8553125 2.0828125 0.6875 3.1875 C-4.39698589 8.50847361 -6.3760527 13.30983047 -6.28125 20.5859375 C-5.6759857 25.78112273 -3.33933068 29.66066932 0.3125 33.3125 C3.4587506 35.2880527 6.54281628 36.64424168 10 38 C10 38.33 10 38.66 10 39 C5.82653184 39.62602022 3.35046392 38.9305316 -0.0625 36.625 C-5.17000069 32.45861268 -8.28581805 27.15461614 -9.40625 20.63671875 C-9.68208388 13.98222636 -7.73104272 8.46542447 -3.9375 3.0625 C-2 1 -2 1 0 0 Z " fill="#3A1A55" transform="translate(162,57)"/>
<path d="M0 0 C7.62631636 0.24601021 13.02647774 2.15237723 19 7 C24.10382203 13.08487706 25.65114792 19.09536716 25 27 C24 30.5 24 30.5 23 33 C20.90686301 29.5925677 20.88996589 27.19448544 21.125 23.25 C21.18635281 17.6532599 20.79590096 13.31397668 17 9 C14.13826322 6.98545552 11.19452329 5.41978813 8 4 C8 3.34 8 2.68 8 2 C5.36 2 2.72 2 0 2 C0 1.34 0 0.68 0 0 Z " fill="#432061" transform="translate(29,52)"/>
<path d="M0 0 C0.33 0 0.66 0 1 0 C1 8.58 1 17.16 1 26 C-10.22 26 -21.44 26 -33 26 C-32.01 25.01 -31.02 24.02 -30 23 C-28.17871094 23.32006836 -28.17871094 23.32006836 -26 24 C-24.04651896 24.01544048 -22.09211079 23.96851529 -20.140625 23.87890625 C-19.02558594 23.83056641 -17.91054688 23.78222656 -16.76171875 23.73242188 C-15.02341797 23.64831055 -15.02341797 23.64831055 -13.25 23.5625 C-11.48849609 23.48418945 -11.48849609 23.48418945 -9.69140625 23.40429688 C-6.79403325 23.27473955 -3.89698065 23.1380526 -1 23 C-0.67 15.41 -0.34 7.82 0 0 Z " fill="#020003" transform="translate(457,68)"/>
<path d="M0 0 C0.33 0 0.66 0 1 0 C1.15367256 10.00492848 1.3018543 20.0099216 1.4429636 30.01503563 C1.50865526 34.66045977 1.57626117 39.30583984 1.64819336 43.95117188 C1.71750038 48.43146875 1.78184241 52.91181158 1.84269524 57.39223099 C1.86683069 59.10433175 1.89277624 60.81640796 1.92053413 62.52845383 C1.95901171 64.92046008 1.99113905 67.31247158 2.02172852 69.70458984 C2.03467453 70.41740616 2.04762054 71.13022247 2.06095886 71.86463928 C2.11405216 76.77189568 2.11405216 76.77189568 1 79 C0.34 79 -0.32 79 -1 79 C-0.67 52.93 -0.34 26.86 0 0 Z " fill="#2E2C2D" transform="translate(850,66)"/>
<path d="M0 0 C2.51605723 1.926282 3.14725615 3.59353775 4.06640625 6.58203125 C3.40640625 6.25203125 2.74640625 5.92203125 2.06640625 5.58203125 C2.06640625 4.92203125 2.06640625 4.26203125 2.06640625 3.58203125 C0.40655827 2.89856443 -1.2619618 2.2361481 -2.93359375 1.58203125 C-3.86171875 1.21078125 -4.78984375 0.83953125 -5.74609375 0.45703125 C-12.63907012 -1.43515834 -17.55619231 -0.69259246 -23.87890625 2.359375 C-26.7724857 4.08121981 -28.74195309 6.03690016 -30.93359375 8.58203125 C-30.61912767 5.44803036 -30.37072671 3.98281036 -28.0078125 1.81640625 C-27.22019531 1.3265625 -26.43257812 0.83671875 -25.62109375 0.33203125 C-24.84121094 -0.168125 -24.06132813 -0.66828125 -23.2578125 -1.18359375 C-15.30530003 -5.40711298 -7.74351361 -3.81722502 0 0 Z " fill="#381C55" transform="translate(85.93359375,13.41796875)"/>
<path d="M0 0 C0.33 0 0.66 0 1 0 C1.03738281 0.72445312 1.07476562 1.44890625 1.11328125 2.1953125 C1.49670574 7.83390797 2.03561784 12.05936307 5 17 C5.33 17.99 5.66 18.98 6 20 C9.60132709 22.30484934 14.00536651 23.53530105 18 25 C17.67 25.99 17.34 26.98 17 28 C9.29317379 24.69489864 3.65122393 21.29366897 -0.1796875 13.64453125 C-1.13665903 10.55943731 -1.00984563 8.3817187 -0.625 5.1875 C-0.51414062 4.21167969 -0.40328125 3.23585938 -0.2890625 2.23046875 C-0.19367187 1.49441406 -0.09828125 0.75835937 0 0 Z " fill="#3C1758" transform="translate(9,70)"/>
<path d="M0 0 C0.33 0 0.66 0 1 0 C0.9278125 0.92941406 0.855625 1.85882812 0.78125 2.81640625 C0.6884375 4.05261719 0.595625 5.28882813 0.5 6.5625 C0.4071875 7.78066406 0.314375 8.99882812 0.21875 10.25390625 C-0.05222861 14.00346022 -0.05222861 14.00346022 0.09375 17.77734375 C0 21 0 21 -2 24 C-4.85769028 16.85577431 -4.79410891 11.51499684 -2 4.5 C-1.34682767 2.99407492 -0.68477083 1.49182216 0 0 Z " fill="#4E2F68" transform="translate(54,19)"/>
<path d="M0 0 C1.84036681 2.76055022 2.68344114 4.74598117 3.625 7.875 C3.88539063 8.71804687 4.14578125 9.56109375 4.4140625 10.4296875 C5.00963022 13.04224458 5.10525251 15.33041371 5 18 C2.1875 19.5625 2.1875 19.5625 -1 21 C-1.99 20.67 -2.98 20.34 -4 20 C-3.54625 19.5875 -3.0925 19.175 -2.625 18.75 C-0.0526204 15.97974505 0.93379136 13.99312958 1.1875 10.1875 C0.98523311 6.74896281 0.54403068 3.40019176 0 0 Z " fill="#171316" transform="translate(461,168)"/>
<path d="M0 0 C0 0.33 0 0.66 0 1 C-2.97 1 -5.94 1 -9 1 C-9 1.66 -9 2.32 -9 3 C-10.27057182 3.47985967 -11.54146848 3.9588593 -12.8125 4.4375 C-13.87404297 4.83775391 -13.87404297 4.83775391 -14.95703125 5.24609375 C-16.62672396 5.86225186 -18.31157704 6.43719235 -20 7 C-20.33 7.825 -20.66 8.65 -21 9.5 C-21.495 10.7375 -21.495 10.7375 -22 12 C-22.99 12.33 -23.98 12.66 -25 13 C-24.52018228 8.68164056 -22.25012912 6.70844093 -19 4 C-12.74124501 0.18549252 -7.23552119 -0.543797 0 0 Z " fill="#42235B" transform="translate(139,10)"/>
<path d="M0 0 C4.60063529 1.80739243 6.89734044 5.01521279 9.25 9.25 C10.30997012 13.13655712 10.50954286 16.9985899 10 21 C9.34 21.99 8.68 22.98 8 24 C7.96261719 23.20335937 7.92523438 22.40671875 7.88671875 21.5859375 C7.36076594 13.10881576 6.23288641 8.01795929 0 2 C0 1.34 0 0.68 0 0 Z " fill="#42275D" transform="translate(189,117)"/>
<path d="M0 0 C0.33 0 0.66 0 1 0 C1.08636719 0.9178125 1.17273438 1.835625 1.26171875 2.78125 C2.14709561 10.51408278 3.2701097 15.77646013 8 22 C3.17307833 19.93721296 0.97725351 16.79286252 -1 12 C-1.53535689 7.91939083 -1.87394236 3.74788471 0 0 Z " fill="#3B175A" transform="translate(9,130)"/>
<path d="M0 0 C1.8871875 0.0309375 1.8871875 0.0309375 3.8125 0.0625 C2.3275 1.5475 2.3275 1.5475 0.8125 3.0625 C2.1325 3.7225 3.4525 4.3825 4.8125 5.0625 C-1.6225 5.5575 -1.6225 5.5575 -8.1875 6.0625 C-7.8575 4.4125 -7.5275 2.7625 -7.1875 1.0625 C-4.43671116 0.14557039 -2.82801087 -0.04636083 0 0 Z " fill="#110E13" transform="translate(289.1875,89.9375)"/>
<path d="M0 0 C6 7.2 6 7.2 6 12 C3.69 11.67 1.38 11.34 -1 11 C-1.125 3.375 -1.125 3.375 0 0 Z " fill="#111012" transform="translate(346,88)"/>
<path d="M0 0 C1.86785156 0.15275391 1.86785156 0.15275391 3.7734375 0.30859375 C5.18496094 0.43427734 5.18496094 0.43427734 6.625 0.5625 C6.625 1.2225 6.625 1.8825 6.625 2.5625 C0.025 2.5625 -6.575 2.5625 -13.375 2.5625 C-13.375 1.9025 -13.375 1.2425 -13.375 0.5625 C-8.75534912 -0.39696595 -4.69370875 -0.39852244 0 0 Z " fill="#131014" transform="translate(729.375,188.4375)"/>
<path d="M0 0 C0.33 0 0.66 0 1 0 C0.67 5.94 0.34 11.88 0 18 C-3 15 -3 15 -3.375 11.8125 C-2.93637429 7.35313861 -1.7334679 4.11698625 0 0 Z " fill="#482865" transform="translate(53,166)"/>
<path d="M0 0 C0.66 0.66 1.32 1.32 2 2 C-0.85276137 4.93200474 -3.65079784 7.64315404 -7 10 C-7.66 9.67 -8.32 9.34 -9 9 C-6.78310162 4.56620325 -4.22271781 2.53363068 0 0 Z " fill="#100D10" transform="translate(270,67)"/>
<path d="M0 0 C1.27617187 0.02320313 2.55234375 0.04640625 3.8671875 0.0703125 C5.78917969 0.09738281 5.78917969 0.09738281 7.75 0.125 C9.23113281 0.15980469 9.23113281 0.15980469 10.7421875 0.1953125 C11.0721875 1.1853125 11.4021875 2.1753125 11.7421875 3.1953125 C5.46750951 4.2701416 0.83557919 4.07872448 -5.2578125 2.1953125 C-3.2578125 0.1953125 -3.2578125 0.1953125 0 0 Z " fill="#4F2568" transform="translate(129.2578125,51.8046875)"/>
<path d="M0 0 C0.33 0 0.66 0 1 0 C1.16755938 3.95075379 1.3281242 7.90172321 1.48217773 11.85302734 C1.56187238 13.85920071 1.64712518 15.86515076 1.73242188 17.87109375 C1.78076172 19.12792969 1.82910156 20.38476562 1.87890625 21.6796875 C1.94960327 23.42354736 1.94960327 23.42354736 2.02172852 25.20263672 C2 28 2 28 1 30 C0.34 30 -0.32 30 -1 30 C-0.67 20.1 -0.34 10.2 0 0 Z " fill="#201D1D" transform="translate(850,115)"/>
<path d="M0 0 C-4.9773178 2.04197653 -9.67735559 2.6580724 -15 2 C-17.2734375 0.984375 -17.2734375 0.984375 -19 0 C-15.6734442 -0.77619635 -12.32452648 -1.26724856 -8.9375 -1.6875 C-7.68259766 -1.84798828 -7.68259766 -1.84798828 -6.40234375 -2.01171875 C-3.71498385 -1.99860968 -2.27815503 -1.37320661 0 0 Z " fill="#4A256C" transform="translate(187,96)"/>
<path d="M0 0 C0 0.66 0 1.32 0 2 C-0.59167969 2.23074219 -1.18335937 2.46148437 -1.79296875 2.69921875 C-6.91265887 4.81223931 -10.37979369 6.79588945 -14 11 C-13.68437433 7.85979208 -13.41901839 6.39182044 -11.07421875 4.19921875 C-10.28660156 3.70035156 -9.49898437 3.20148437 -8.6875 2.6875 C-7.90761719 2.17574219 -7.12773438 1.66398438 -6.32421875 1.13671875 C-4 0 -4 0 0 0 Z " fill="#3D215C" transform="translate(69,11)"/>
<path d="M0 0 C0.33 0.66 0.66 1.32 1 2 C1.66 2 2.32 2 3 2 C3.66 3.98 4.32 5.96 5 8 C5.66 8 6.32 8 7 8 C10 11.46153846 10 11.46153846 10 14 C5.45739965 12.21540701 3.17307321 8.99422445 0.75 4.875 C0 3 0 3 0 0 Z " fill="#411F5E" transform="translate(51,182)"/>
<path d="M0 0 C0.76570313 0.46019531 0.76570313 0.46019531 1.546875 0.9296875 C4.75035193 2.32738285 7.78868061 2.67631045 11.25 3.125 C12.51328125 3.29257813 13.7765625 3.46015625 15.078125 3.6328125 C16.04234375 3.75398437 17.0065625 3.87515625 18 4 C17.67 4.66 17.34 5.32 17 6 C10.82711812 6.3306901 6.61897168 5.66161816 1 3 C0.67 2.01 0.34 1.02 0 0 Z " fill="#3C1A58" transform="translate(18,152)"/>
<path d="M0 0 C1.5625 1.125 1.5625 1.125 3 3 C2.6875 6.1875 2.6875 6.1875 2 9 C1.01 9.33 0.02 9.66 -1 10 C-1.66 10.66 -2.32 11.32 -3 12 C-3.33 11.34 -3.66 10.68 -4 10 C-3.1875 7.6875 -3.1875 7.6875 -2 5 C-1.62875 4.071875 -1.2575 3.14375 -0.875 2.1875 C-0.58625 1.465625 -0.2975 0.74375 0 0 Z " fill="#5C3284" transform="translate(196,135)"/>
<path d="M0 0 C2.97 0 5.94 0 9 0 C11.20399168 4.55491614 11.58846263 9.02906176 12 14 C11.34 13.67 10.68 13.34 10 13 C10 10.69 10 8.38 10 6 C9.34 6 8.68 6 8 6 C7.67 4.35 7.34 2.7 7 1 C4.69 1 2.38 1 0 1 C0 0.67 0 0.34 0 0 Z " fill="#1B171B" transform="translate(245,64)"/>
<path d="M0 0 C-4.92737019 1.97094808 -8.78020872 2.1799928 -14 2 C-13.67 1.01 -13.34 0.02 -13 -1 C-11.39773045 -1.22245393 -9.79303233 -1.42746669 -8.1875 -1.625 C-7.29417969 -1.74101563 -6.40085937 -1.85703125 -5.48046875 -1.9765625 C-3 -2 -3 -2 0 0 Z " fill="#4A2264" transform="translate(41,96)"/>
<path d="M0 0 C0.680625 0.721875 1.36125 1.44375 2.0625 2.1875 C5.09214518 5.23455693 8.46217304 7.57207954 12 10 C10.1953125 10.640625 10.1953125 10.640625 8 11 C4.63692285 8.57858445 2.30190493 6.4528574 0 3 C0 2.01 0 1.02 0 0 Z " fill="#3F1D58" transform="translate(114,42)"/>
<path d="M0 0 C1.41377341 2.63904371 2.37240135 5.07120629 3 8 C2.01 7.34 1.02 6.68 0 6 C-0.99 9.465 -0.99 9.465 -2 13 C-2.33 13 -2.66 13 -3 13 C-2.88490339 11.58249437 -2.75746342 10.16598831 -2.625 8.75 C-2.55539062 7.96109375 -2.48578125 7.1721875 -2.4140625 6.359375 C-1.98492887 3.914123 -1.21399362 2.15163097 0 0 Z " fill="#161316" transform="translate(916,84)"/>
<path d="M0 0 C0.66 0 1.32 0 2 0 C1.67 2.64 1.34 5.28 1 8 C-1.475 7.01 -1.475 7.01 -4 6 C-1.125 1.125 -1.125 1.125 0 0 Z " fill="#5C3088" transform="translate(162,119)"/>
<path d="M0 0 C2.31 0.33 4.62 0.66 7 1 C7 2.32 7 3.64 7 5 C6.01 5.66 5.02 6.32 4 7 C2.02 3.535 2.02 3.535 0 0 Z " fill="#0F0E0E" transform="translate(310,104)"/>
<path d="M0 0 C4.43601966 3.51822249 5.52033129 7.75390186 7 13 C2.56398034 9.48177751 1.47966871 5.24609814 0 0 Z " fill="#462A62" transform="translate(89,16)"/>
<path d="M0 0 C0.99 0 1.98 0 3 0 C3.36923077 4.55384615 3.36923077 4.55384615 1.5 6.8125 C1.005 7.204375 0.51 7.59625 0 8 C0 7.34 0 6.68 0 6 C-0.66 5.67 -1.32 5.34 -2 5 C-1.125 1.125 -1.125 1.125 0 0 Z " fill="#110D0F" transform="translate(883,155)"/>
<path d="M0 0 C-4.28534391 2.85689594 -7.96398073 2.34655647 -12.9375 1.5 C-13.618125 1.335 -14.29875 1.17 -15 1 C-15 0.67 -15 0.34 -15 0 C-9.96266834 -1.5111995 -5.11828973 -0.64599773 0 0 Z " fill="#4F236A" transform="translate(38,113)"/>
<path d="M0 0 C0.66 0 1.32 0 2 0 C3.17664871 3.52994613 3.19850603 6.29455413 3 10 C2.34 10.99 1.68 11.98 1 13 C-0.00496852 9.98509443 -0.10335303 7.95818308 -0.0625 4.8125 C-0.05347656 3.91144531 -0.04445312 3.01039062 -0.03515625 2.08203125 C-0.02355469 1.39496094 -0.01195312 0.70789063 0 0 Z " fill="#4B276F" transform="translate(51,30)"/>
<path d="M0 0 C0.99 0.33 1.98 0.66 3 1 C2.04663979 2.31611677 1.08714226 3.62778961 0.125 4.9375 C-0.40867187 5.66839844 -0.94234375 6.39929688 -1.4921875 7.15234375 C-3 9 -3 9 -5 10 C-4.38545304 6.00544473 -2.29353263 3.25533664 0 0 Z " fill="#462560" transform="translate(92,186)"/>
<path d="M0 0 C0.70125 0.7425 1.4025 1.485 2.125 2.25 C4.97718006 4.97817223 7.6763063 6.91302954 11 9 C9.3125 9.75 9.3125 9.75 7 10 C3.87823497 7.91882331 2.08898911 6.13348366 0 3 C0 2.01 0 1.02 0 0 Z " fill="#381551" transform="translate(114,187)"/>
<path d="M0 0 C0 3 0 3 -1 6 C-3.5625 7.6875 -3.5625 7.6875 -6 9 C-6.66 8.01 -7.32 7.02 -8 6 C-5.36 4.02 -2.72 2.04 0 0 Z " fill="#110E12" transform="translate(310,150)"/>
<path d="M0 0 C0.66 0.33 1.32 0.66 2 1 C0.12013348 4.47775306 -1.47569447 7.07765153 -5 9 C-7.25 8.6875 -7.25 8.6875 -9 8 C-7.329375 7.13375 -7.329375 7.13375 -5.625 6.25 C-2.66807857 4.57739798 -1.07684279 3.35017758 0 0 Z " fill="#3A185A" transform="translate(193,86)"/>
<path d="M0 0 C2.46751239 3.70126859 2.30721156 5.62223532 2 10 C0.984375 12.22265625 0.984375 12.22265625 0 14 C-1.33257403 4.58997722 -1.33257403 4.58997722 0 0 Z " fill="#4C2C69" transform="translate(155,26)"/>
<path d="M0 0 C0.99 0 1.98 0 3 0 C2 2 2 2 0 5 C-3.125 5.6875 -3.125 5.6875 -6 6 C-4 4 -2 2 0 0 Z " fill="#5D3485" transform="translate(63,14)"/>
<path d="M0 0 C2.475 0.495 2.475 0.495 5 1 C5 3.31 5 5.62 5 8 C2.20127563 5.47211993 0.54226981 3.79588866 0 0 Z " fill="#151111" transform="translate(393,171)"/>
<path d="M0 0 C3.16470185 4.74705277 3.10927475 8.31771295 3 14 C2.67 14 2.34 14 2 14 C1.46877637 12.23225581 0.95035927 10.46065917 0.4375 8.6875 C0.14746094 7.70136719 -0.14257812 6.71523437 -0.44140625 5.69921875 C-1 3 -1 3 0 0 Z " fill="#482660" transform="translate(154,167)"/>
<path d="M0 0 C2.89932357 2.39509338 3.50168276 4.31245243 4 8 C2.02 6.68 0.04 5.36 -2 4 C-1.34 3.67 -0.68 3.34 0 3 C0 2.01 0 1.02 0 0 Z " fill="#140F13" transform="translate(1005,131)"/>
<path d="M0 0 C3.93774177 -0.36630156 5.56539771 -0.30233203 8.875 2 C9.926875 2.99 9.926875 2.99 11 4 C10.67 4.66 10.34 5.32 10 6 C6.7 4.35 3.4 2.7 0 1 C0 0.67 0 0.34 0 0 Z " fill="#381955" transform="translate(35,114)"/>
<path d="M0 0 C2.25245881 2.68841859 3.88213958 4.64641875 5 8 C4.01 9.485 4.01 9.485 3 11 C0 4.5 0 4.5 0 0 Z " fill="#3E1F57" transform="translate(151,18)"/>
<path d="M0 0 C1.93719378 -0.05406122 3.87481921 -0.09282025 5.8125 -0.125 C6.89144531 -0.14820313 7.97039062 -0.17140625 9.08203125 -0.1953125 C12 0 12 0 15 2 C13.35 2.33 11.7 2.66 10 3 C10 2.34 10 1.68 10 1 C6.7 1 3.4 1 0 1 C0 0.67 0 0.34 0 0 Z " fill="#4C2F67" transform="translate(128,155)"/>
<path d="M0 0 C-2.97 2.475 -2.97 2.475 -6 5 C-6.99 3.68 -7.98 2.36 -9 1 C-5.57367167 -0.61798838 -3.61944899 -1.34053666 0 0 Z " fill="#121213" transform="translate(273,101)"/>
<path d="M0 0 C1.2065625 0.0309375 1.2065625 0.0309375 2.4375 0.0625 C2.1075 1.7125 1.7775 3.3625 1.4375 5.0625 C0.4475 5.0625 -0.5425 5.0625 -1.5625 5.0625 C-1.5625 4.4025 -1.5625 3.7425 -1.5625 3.0625 C-2.2225 2.4025 -2.8825 1.7425 -3.5625 1.0625 C-2.5625 0.0625 -2.5625 0.0625 0 0 Z " fill="#181416" transform="translate(995.5625,95.9375)"/>
<path d="M0 0 C0.33 0 0.66 0 1 0 C1.22142255 1.95689659 1.4267568 3.91561952 1.625 5.875 C1.74101563 6.96554688 1.85703125 8.05609375 1.9765625 9.1796875 C1.98429687 10.11039063 1.99203125 11.04109375 2 12 C1.34 12.66 0.68 13.32 0 14 C-1.03115279 10.73086376 -0.9638984 8.13958652 -0.5625 4.75 C-0.46066406 3.85796875 -0.35882813 2.9659375 -0.25390625 2.046875 C-0.17011719 1.37140625 -0.08632813 0.6959375 0 0 Z " fill="#4A286F" transform="translate(51,71)"/>
<path d="M0 0 C0.66 0.33 1.32 0.66 2 1 C2 2.65 2 4.3 2 6 C0.02 5.34 -1.96 4.68 -4 4 C-2.68 2.68 -1.36 1.36 0 0 Z " fill="#5A2F85" transform="translate(165,57)"/>
<path d="M0 0 C0.99 0 1.98 0 3 0 C2.43628586 3.26954202 1.50037734 4.82575883 -1 7 C-2 4 -2 4 -1.0625 1.8125 C-0.5365625 0.9153125 -0.5365625 0.9153125 0 0 Z " fill="#543473" transform="translate(113,22)"/>
<path d="M0 0 C-1 3 -1 3 -3 4 C-5.3329866 4.04022391 -7.66706666 4.04320247 -10 4 C-8.66666667 3.33333333 -7.33333333 2.66666667 -6 2 C-5.29875 1.62875 -4.5975 1.2575 -3.875 0.875 C-2 0 -2 0 0 0 Z " fill="#371052" transform="translate(146,195)"/>
<path d="M0 0 C1.32 0 2.64 0 4 0 C4.33 0.99 4.66 1.98 5 3 C3.02 3.66 1.04 4.32 -1 5 C-0.67 3.35 -0.34 1.7 0 0 Z " fill="#5C2E85" transform="translate(139,193)"/>
<path d="M0 0 C0.93423645 3.01031744 1.04449911 3.86650268 0 7 C-1.65 7 -3.3 7 -5 7 C-4.01 6.34 -3.02 5.68 -2 5 C-2.66 4.34 -3.32 3.68 -4 3 C-2.68 2.01 -1.36 1.02 0 0 Z " fill="#0E0E11" transform="translate(971,158)"/>
<path d="M0 0 C0.99 0.33 1.98 0.66 3 1 C3 4.3 3 7.6 3 11 C0.43383368 7.15075052 0.44902324 4.5650696 0 0 Z " fill="#161516" transform="translate(770,149)"/>
<path d="M0 0 C2 2 2 2 2 5 C-0.97 4.505 -0.97 4.505 -4 4 C-3.67 3.01 -3.34 2.02 -3 1 C-2.01 0.67 -1.02 0.34 0 0 Z " fill="#0C0C0F" transform="translate(270,152)"/>
<path d="M0 0 C1.98 0 3.96 0 6 0 C6 0.99 6 1.98 6 3 C3.69 3 1.38 3 -1 3 C-0.67 2.01 -0.34 1.02 0 0 Z " fill="#100E0F" transform="translate(501,5)"/>
<path d="M0 0 C0.66 0.33 1.32 0.66 2 1 C1.6875 2.9375 1.6875 2.9375 1 5 C0.01 5.33 -0.98 5.66 -2 6 C-2.66 4.35 -3.32 2.7 -4 1 C-3.01 1.33 -2.02 1.66 -1 2 C-0.67 1.34 -0.34 0.68 0 0 Z " fill="#562C7E" transform="translate(19,148)"/>
<path d="M0 0 C5.75 0.75 5.75 0.75 8 3 C6.35 2.67 4.7 2.34 3 2 C3 2.66 3 3.32 3 4 C2.01 4 1.02 4 0 4 C0 2.68 0 1.36 0 0 Z " fill="#161517" transform="translate(978,114)"/>
<path d="M0 0 C-3.85756507 2.15305957 -6.55129785 3.39253254 -11 3 C-7.18178484 -0.02823961 -4.81391924 -1.49397494 0 0 Z " fill="#1F1C1F" transform="translate(684,63)"/>
</svg>
